<svg width="37" height="36" viewBox="0 0 37 36" fill="none" xmlns="http://www.w3.org/2000/svg">
<path d="M29.8133 36H6.1187C2.73767 36 0 33.271 0 29.9311L0 6.41586C0 3.06236 2.75136 0.346975 6.1187 0.346975H20.5736C22.0793 0.346975 23.3113 1.5689 23.3113 3.06236C23.3113 4.55582 22.0793 5.77775 20.5736 5.77775H6.1187C5.7628 5.77775 5.47535 6.06286 5.47535 6.41586V29.9175C5.47535 30.2705 5.7628 30.5556 6.1187 30.5556H29.8133C30.1692 30.5556 30.4566 30.2705 30.4566 29.9175V15.9876C30.4566 14.4941 31.6886 13.2722 33.1943 13.2722C34.7 13.2722 35.932 14.4941 35.932 15.9876V29.9311C35.932 33.271 33.1943 36 29.8133 36Z" fill="#FF742B"/>
<path d="M16.4883 14.6065L21.2568 19.6451L32.8338 8.86628L28.0653 3.82772L16.4883 14.6065Z" fill="#FF742B"/>
<path d="M33.3859 0.333398L36.7122 3.84982C37.1092 4.27071 37.0955 4.93598 36.6711 5.32971L33.6871 8.11298L28.8961 3.06236L31.8802 0.279091C32.3182 -0.11464 32.9753 -0.0874872 33.3859 0.333398Z" fill="#FF742B"/>
<path d="M15.6595 15.3902L20.423 20.4273L13.6884 21.9615L15.6595 15.3902Z" fill="#FF742B"/>
</svg>
