<svg width="363" height="74" viewBox="0 0 363 74" fill="none" xmlns="http://www.w3.org/2000/svg">
<path d="M99.87 40.1783H95.5149C95.4354 39.6149 95.273 39.1144 95.0277 38.6769C94.7824 38.2328 94.4676 37.855 94.0831 37.5434C93.6986 37.2318 93.2545 36.9932 92.7507 36.8275C92.2536 36.6618 91.7133 36.5789 91.13 36.5789C90.076 36.5789 89.1579 36.8407 88.3757 37.3644C87.5935 37.8815 86.987 38.6372 86.5561 39.6315C86.1253 40.6192 85.9098 41.819 85.9098 43.2309C85.9098 44.6826 86.1253 45.9023 86.5561 46.89C86.9936 47.8777 87.6035 48.6234 88.3857 49.1272C89.1679 49.631 90.0727 49.8829 91.1002 49.8829C91.6769 49.8829 92.2105 49.8067 92.701 49.6542C93.1982 49.5017 93.639 49.2797 94.0235 48.988C94.4079 48.6897 94.7261 48.3284 94.978 47.9042C95.2365 47.48 95.4155 46.9961 95.5149 46.4525L99.87 46.4724C99.7574 47.407 99.4756 48.3086 99.0249 49.1769C98.5807 50.0387 97.9808 50.8109 97.2252 51.4937C96.4761 52.1698 95.5812 52.7068 94.5405 53.1045C93.5064 53.4956 92.3364 53.6911 91.0306 53.6911C89.2143 53.6911 87.5902 53.2801 86.1584 52.4582C84.7332 51.6362 83.6063 50.4463 82.7777 48.8886C81.9557 47.3308 81.5448 45.4449 81.5448 43.2309C81.5448 41.0103 81.9624 39.1211 82.7976 37.5633C83.6328 36.0055 84.7664 34.819 86.1982 34.0036C87.63 33.1817 89.2408 32.7707 91.0306 32.7707C92.2105 32.7707 93.3042 32.9364 94.3118 33.2678C95.326 33.5993 96.2242 34.0832 97.0064 34.7195C97.7886 35.3493 98.425 36.1215 98.9155 37.0363C99.4127 37.9511 99.7308 38.9984 99.87 40.1783ZM107.114 44.5832V53.4127H102.878V33.0491H106.994V40.8346H107.173C107.518 39.9331 108.075 39.2271 108.844 38.7167C109.613 38.1997 110.577 37.9411 111.737 37.9411C112.798 37.9411 113.723 38.1731 114.511 38.6372C115.307 39.0945 115.923 39.7541 116.361 40.6158C116.805 41.471 117.024 42.4951 117.017 43.6883V53.4127H112.781V44.444C112.788 43.5027 112.549 42.7702 112.065 42.2465C111.588 41.7229 110.919 41.461 110.057 41.461C109.48 41.461 108.97 41.5836 108.526 41.8289C108.088 42.0742 107.743 42.4321 107.491 42.9028C107.246 43.3668 107.12 43.9269 107.114 44.5832ZM120.351 53.4127V38.14H124.586V53.4127H120.351ZM122.478 36.1712C121.849 36.1712 121.308 35.9624 120.858 35.5448C120.413 35.1206 120.191 34.6135 120.191 34.0235C120.191 33.4402 120.413 32.9397 120.858 32.5221C121.308 32.0979 121.849 31.8857 122.478 31.8857C123.108 31.8857 123.645 32.0979 124.089 32.5221C124.54 32.9397 124.765 33.4402 124.765 34.0235C124.765 34.6135 124.54 35.1206 124.089 35.5448C123.645 35.9624 123.108 36.1712 122.478 36.1712ZM127.979 59.14V38.14H132.156V40.7053H132.344C132.53 40.2943 132.799 39.8767 133.15 39.4525C133.508 39.0216 133.972 38.6637 134.542 38.3786C135.119 38.087 135.835 37.9411 136.69 37.9411C137.803 37.9411 138.831 38.2328 139.772 38.8161C140.713 39.3928 141.466 40.2645 142.029 41.4312C142.593 42.5912 142.874 44.0462 142.874 45.7962C142.874 47.4998 142.599 48.9383 142.049 50.1116C141.505 51.2782 140.763 52.1632 139.822 52.7664C138.887 53.363 137.84 53.6613 136.68 53.6613C135.858 53.6613 135.158 53.5254 134.582 53.2536C134.012 52.9818 133.544 52.6405 133.18 52.2295C132.815 51.8119 132.537 51.3909 132.344 50.9667H132.215V59.14H127.979ZM132.126 45.7764C132.126 46.6845 132.252 47.4766 132.504 48.1528C132.755 48.8289 133.12 49.3559 133.597 49.7337C134.075 50.105 134.655 50.2906 135.337 50.2906C136.027 50.2906 136.61 50.1016 137.087 49.7238C137.565 49.3393 137.926 48.809 138.171 48.1329C138.423 47.4501 138.549 46.6646 138.549 45.7764C138.549 44.8947 138.426 44.1192 138.181 43.4497C137.936 42.7801 137.575 42.2565 137.097 41.8786C136.62 41.5008 136.033 41.3119 135.337 41.3119C134.648 41.3119 134.065 41.4942 133.587 41.8587C133.117 42.2233 132.755 42.7404 132.504 43.4099C132.252 44.0794 132.126 44.8682 132.126 45.7764ZM145.698 59.14V38.14H149.874V40.7053H150.063C150.249 40.2943 150.517 39.8767 150.869 39.4525C151.227 39.0216 151.691 38.6637 152.261 38.3786C152.837 38.087 153.553 37.9411 154.408 37.9411C155.522 37.9411 156.549 38.2328 157.491 38.8161C158.432 39.3928 159.184 40.2645 159.748 41.4312C160.311 42.5912 160.593 44.0462 160.593 45.7962C160.593 47.4998 160.318 48.9383 159.768 50.1116C159.224 51.2782 158.482 52.1632 157.54 52.7664C156.606 53.363 155.558 53.6613 154.398 53.6613C153.576 53.6613 152.877 53.5254 152.3 53.2536C151.73 52.9818 151.263 52.6405 150.898 52.2295C150.534 51.8119 150.255 51.3909 150.063 50.9667H149.934V59.14H145.698ZM149.844 45.7764C149.844 46.6845 149.97 47.4766 150.222 48.1528C150.474 48.8289 150.839 49.3559 151.316 49.7337C151.793 50.105 152.373 50.2906 153.056 50.2906C153.746 50.2906 154.329 50.1016 154.806 49.7238C155.283 49.3393 155.645 48.809 155.89 48.1329C156.142 47.4501 156.268 46.6646 156.268 45.7764C156.268 44.8947 156.145 44.1192 155.9 43.4497C155.655 42.7801 155.293 42.2565 154.816 41.8786C154.339 41.5008 153.752 41.3119 153.056 41.3119C152.367 41.3119 151.783 41.4942 151.306 41.8587C150.835 42.2233 150.474 42.7404 150.222 43.4099C149.97 44.0794 149.844 44.8682 149.844 45.7764ZM170.377 53.711C168.806 53.711 167.454 53.3928 166.32 52.7565C165.193 52.1135 164.325 51.2053 163.715 50.032C163.105 48.8521 162.8 47.4568 162.8 45.846C162.8 44.2749 163.105 42.8961 163.715 41.7096C164.325 40.523 165.183 39.5983 166.29 38.9354C167.404 38.2726 168.71 37.9411 170.208 37.9411C171.216 37.9411 172.154 38.1035 173.022 38.4283C173.897 38.7465 174.659 39.2271 175.309 39.8701C175.965 40.5131 176.476 41.3218 176.84 42.2962C177.205 43.264 177.387 44.3976 177.387 45.6968V46.8602H164.491V44.2352H173.4C173.4 43.6253 173.267 43.0851 173.002 42.6144C172.737 42.1438 172.369 41.7759 171.898 41.5107C171.434 41.239 170.894 41.1031 170.278 41.1031C169.635 41.1031 169.065 41.2522 168.567 41.5505C168.077 41.8422 167.692 42.2366 167.414 42.7337C167.136 43.2243 166.993 43.7711 166.987 44.3744V46.8701C166.987 47.6258 167.126 48.2787 167.404 48.8289C167.689 49.3791 168.09 49.8033 168.607 50.1016C169.124 50.3999 169.737 50.5491 170.447 50.5491C170.917 50.5491 171.348 50.4828 171.739 50.3502C172.13 50.2176 172.465 50.0188 172.744 49.7536C173.022 49.4885 173.234 49.1637 173.38 48.7792L177.298 49.0377C177.099 49.979 176.691 50.801 176.075 51.5036C175.465 52.1997 174.676 52.7432 173.708 53.1343C172.747 53.5188 171.637 53.711 170.377 53.711ZM185.779 53.6613C184.619 53.6613 183.568 53.363 182.627 52.7664C181.692 52.1632 180.95 51.2782 180.4 50.1116C179.856 48.9383 179.585 47.4998 179.585 45.7962C179.585 44.0462 179.866 42.5912 180.43 41.4312C180.993 40.2645 181.742 39.3928 182.677 38.8161C183.618 38.2328 184.649 37.9411 185.769 37.9411C186.624 37.9411 187.337 38.087 187.907 38.3786C188.484 38.6637 188.948 39.0216 189.299 39.4525C189.657 39.8767 189.929 40.2943 190.114 40.7053H190.244V33.0491H194.469V53.4127H190.293V50.9667H190.114C189.915 51.3909 189.634 51.8119 189.269 52.2295C188.911 52.6405 188.444 52.9818 187.867 53.2536C187.297 53.5254 186.601 53.6613 185.779 53.6613ZM187.121 50.2906C187.804 50.2906 188.381 50.105 188.852 49.7337C189.329 49.3559 189.693 48.8289 189.945 48.1528C190.204 47.4766 190.333 46.6845 190.333 45.7764C190.333 44.8682 190.207 44.0794 189.955 43.4099C189.703 42.7404 189.339 42.2233 188.862 41.8587C188.384 41.4942 187.804 41.3119 187.121 41.3119C186.425 41.3119 185.839 41.5008 185.362 41.8786C184.884 42.2565 184.523 42.7801 184.278 43.4497C184.032 44.1192 183.91 44.8947 183.91 45.7764C183.91 46.6646 184.032 47.4501 184.278 48.1329C184.53 48.809 184.891 49.3393 185.362 49.7238C185.839 50.1016 186.425 50.2906 187.121 50.2906ZM204.512 53.4127V33.0491H212.546C214.091 33.0491 215.407 33.3441 216.494 33.934C217.581 34.5174 218.409 35.3294 218.979 36.3701C219.556 37.4042 219.844 38.5974 219.844 39.9497C219.844 41.3019 219.553 42.4951 218.969 43.5292C218.386 44.5633 217.541 45.3687 216.434 45.9454C215.334 46.5221 214.001 46.8104 212.437 46.8104H207.316V43.3602H211.741C212.569 43.3602 213.252 43.2176 213.789 42.9326C214.333 42.6409 214.737 42.2399 215.002 41.7295C215.274 41.2124 215.41 40.6192 215.41 39.9497C215.41 39.2735 215.274 38.6836 215.002 38.1798C214.737 37.6693 214.333 37.2749 213.789 36.9965C213.246 36.7115 212.556 36.569 211.721 36.569H208.817V53.4127H204.512ZM229.276 53.711C227.705 53.711 226.352 53.3928 225.219 52.7565C224.092 52.1135 223.224 51.2053 222.614 50.032C222.004 48.8521 221.699 47.4568 221.699 45.846C221.699 44.2749 222.004 42.8961 222.614 41.7096C223.224 40.523 224.082 39.5983 225.189 38.9354C226.303 38.2726 227.608 37.9411 229.107 37.9411C230.114 37.9411 231.052 38.1035 231.92 38.4283C232.795 38.7465 233.558 39.2271 234.207 39.8701C234.864 40.5131 235.374 41.3218 235.739 42.2962C236.103 43.264 236.286 44.3976 236.286 45.6968V46.8602H223.389V44.2352H232.298C232.298 43.6253 232.166 43.0851 231.901 42.6144C231.635 42.1438 231.268 41.7759 230.797 41.5107C230.333 41.239 229.793 41.1031 229.176 41.1031C228.533 41.1031 227.963 41.2522 227.466 41.5505C226.975 41.8422 226.591 42.2366 226.313 42.7337C226.034 43.2243 225.892 43.7711 225.885 44.3744V46.8701C225.885 47.6258 226.024 48.2787 226.303 48.8289C226.588 49.3791 226.989 49.8033 227.506 50.1016C228.023 50.3999 228.636 50.5491 229.345 50.5491C229.816 50.5491 230.247 50.4828 230.638 50.3502C231.029 50.2176 231.364 50.0188 231.642 49.7536C231.92 49.4885 232.133 49.1637 232.278 48.7792L236.196 49.0377C235.997 49.979 235.59 50.801 234.973 51.5036C234.363 52.1997 233.574 52.7432 232.607 53.1343C231.645 53.5188 230.535 53.711 229.276 53.711ZM247.173 38.14V41.3218H237.976V38.14H247.173ZM240.064 34.4809H244.3V48.7195C244.3 49.1106 244.359 49.4156 244.479 49.6343C244.598 49.8464 244.764 49.9956 244.976 50.0818C245.195 50.1679 245.447 50.211 245.732 50.211C245.93 50.211 246.129 50.1944 246.328 50.1613C246.527 50.1215 246.679 50.0917 246.786 50.0718L247.452 53.2238C247.24 53.2901 246.941 53.3663 246.557 53.4525C246.172 53.5453 245.705 53.6016 245.155 53.6215C244.134 53.6613 243.239 53.5254 242.47 53.2139C241.708 52.9023 241.115 52.4184 240.69 51.7622C240.266 51.1059 240.057 50.2773 240.064 49.2764V34.4809ZM262.449 42.4951L258.571 42.7337C258.504 42.4023 258.362 42.104 258.143 41.8389C257.924 41.5671 257.636 41.3516 257.278 41.1925C256.927 41.0268 256.506 40.944 256.015 40.944C255.359 40.944 254.806 41.0832 254.355 41.3616C253.904 41.6334 253.679 41.9979 253.679 42.4553C253.679 42.8199 253.824 43.1282 254.116 43.38C254.408 43.6319 254.908 43.8341 255.618 43.9866L258.382 44.5434C259.867 44.8483 260.974 45.3389 261.703 46.015C262.432 46.6911 262.797 47.5794 262.797 48.6798C262.797 49.6807 262.502 50.559 261.912 51.3147C261.328 52.0704 260.526 52.6604 259.505 53.0846C258.491 53.5022 257.321 53.711 255.995 53.711C253.974 53.711 252.363 53.2901 251.163 52.4482C249.97 51.5997 249.27 50.4463 249.065 48.988L253.231 48.7693C253.357 49.3857 253.662 49.8564 254.146 50.1812C254.63 50.4994 255.25 50.6585 256.005 50.6585C256.748 50.6585 257.344 50.5159 257.795 50.2309C258.253 49.9392 258.485 49.5647 258.491 49.1073C258.485 48.7229 258.322 48.408 258.004 48.1627C257.686 47.9108 257.195 47.7186 256.532 47.586L253.887 47.059C252.396 46.7607 251.286 46.2437 250.556 45.5079C249.834 44.7721 249.473 43.8341 249.473 42.694C249.473 41.7129 249.738 40.8677 250.268 40.1585C250.805 39.4492 251.557 38.9023 252.525 38.5178C253.5 38.1334 254.64 37.9411 255.946 37.9411C257.875 37.9411 259.393 38.3488 260.5 39.1641C261.613 39.9795 262.263 41.0898 262.449 42.4951ZM272.024 53.4127V33.0491H276.329V41.4511H285.069V33.0491H289.365V53.4127H285.069V45.0008H276.329V53.4127H272.024ZM299.795 53.711C298.224 53.711 296.872 53.3928 295.738 52.7565C294.611 52.1135 293.743 51.2053 293.133 50.032C292.523 48.8521 292.218 47.4568 292.218 45.846C292.218 44.2749 292.523 42.8961 293.133 41.7096C293.743 40.523 294.601 39.5983 295.708 38.9354C296.822 38.2726 298.128 37.9411 299.626 37.9411C300.634 37.9411 301.572 38.1035 302.44 38.4283C303.315 38.7465 304.077 39.2271 304.727 39.8701C305.383 40.5131 305.894 41.3218 306.258 42.2962C306.623 43.264 306.805 44.3976 306.805 45.6968V46.8602H293.909V44.2352H302.818C302.818 43.6253 302.685 43.0851 302.42 42.6144C302.155 42.1438 301.787 41.7759 301.316 41.5107C300.852 41.239 300.312 41.1031 299.696 41.1031C299.053 41.1031 298.483 41.2522 297.985 41.5505C297.495 41.8422 297.11 42.2366 296.832 42.7337C296.554 43.2243 296.411 43.7711 296.404 44.3744V46.8701C296.404 47.6258 296.544 48.2787 296.822 48.8289C297.107 49.3791 297.508 49.8033 298.025 50.1016C298.542 50.3999 299.155 50.5491 299.865 50.5491C300.335 50.5491 300.766 50.4828 301.157 50.3502C301.548 50.2176 301.883 50.0188 302.162 49.7536C302.44 49.4885 302.652 49.1637 302.798 48.7792L306.716 49.0377C306.517 49.979 306.109 50.801 305.493 51.5036C304.883 52.1997 304.094 52.7432 303.126 53.1343C302.165 53.5188 301.055 53.711 299.795 53.711ZM313.805 33.0491V53.4127H309.569V33.0491H313.805ZM317.198 59.14V38.14H321.374V40.7053H321.563C321.749 40.2943 322.017 39.8767 322.369 39.4525C322.727 39.0216 323.191 38.6637 323.761 38.3786C324.337 38.087 325.053 37.9411 325.908 37.9411C327.022 37.9411 328.049 38.2328 328.991 38.8161C329.932 39.3928 330.684 40.2645 331.248 41.4312C331.811 42.5912 332.093 44.0462 332.093 45.7962C332.093 47.4998 331.818 48.9383 331.268 50.1116C330.724 51.2782 329.982 52.1632 329.04 52.7664C328.106 53.363 327.058 53.6613 325.898 53.6613C325.076 53.6613 324.377 53.5254 323.8 53.2536C323.23 52.9818 322.763 52.6405 322.398 52.2295C322.034 51.8119 321.755 51.3909 321.563 50.9667H321.434V59.14H317.198ZM321.344 45.7764C321.344 46.6845 321.47 47.4766 321.722 48.1528C321.974 48.8289 322.339 49.3559 322.816 49.7337C323.293 50.105 323.873 50.2906 324.556 50.2906C325.246 50.2906 325.829 50.1016 326.306 49.7238C326.783 49.3393 327.145 48.809 327.39 48.1329C327.642 47.4501 327.768 46.6646 327.768 45.7764C327.768 44.8947 327.645 44.1192 327.4 43.4497C327.155 42.7801 326.793 42.2565 326.316 41.8786C325.839 41.5008 325.252 41.3119 324.556 41.3119C323.867 41.3119 323.283 41.4942 322.806 41.8587C322.335 42.2233 321.974 42.7404 321.722 43.4099C321.47 44.0794 321.344 44.8682 321.344 45.7764ZM341.877 53.711C340.306 53.711 338.954 53.3928 337.82 52.7565C336.693 52.1135 335.825 51.2053 335.215 50.032C334.605 48.8521 334.3 47.4568 334.3 45.846C334.3 44.2749 334.605 42.8961 335.215 41.7096C335.825 40.523 336.683 39.5983 337.79 38.9354C338.904 38.2726 340.21 37.9411 341.708 37.9411C342.716 37.9411 343.654 38.1035 344.522 38.4283C345.397 38.7465 346.159 39.2271 346.809 39.8701C347.465 40.5131 347.976 41.3218 348.34 42.2962C348.705 43.264 348.887 44.3976 348.887 45.6968V46.8602H335.991V44.2352H344.9C344.9 43.6253 344.767 43.0851 344.502 42.6144C344.237 42.1438 343.869 41.7759 343.398 41.5107C342.934 41.239 342.394 41.1031 341.778 41.1031C341.135 41.1031 340.565 41.2522 340.067 41.5505C339.577 41.8422 339.192 42.2366 338.914 42.7337C338.636 43.2243 338.493 43.7711 338.487 44.3744V46.8701C338.487 47.6258 338.626 48.2787 338.904 48.8289C339.189 49.3791 339.59 49.8033 340.107 50.1016C340.624 50.3999 341.237 50.5491 341.947 50.5491C342.417 50.5491 342.848 50.4828 343.239 50.3502C343.63 50.2176 343.965 50.0188 344.244 49.7536C344.522 49.4885 344.734 49.1637 344.88 48.7792L348.798 49.0377C348.599 49.979 348.191 50.801 347.575 51.5036C346.965 52.1997 346.176 52.7432 345.208 53.1343C344.247 53.5188 343.137 53.711 341.877 53.711ZM351.651 53.4127V38.14H355.758V40.8048H355.917C356.195 39.8568 356.663 39.1409 357.319 38.657C357.975 38.1665 358.731 37.9212 359.586 37.9212C359.798 37.9212 360.027 37.9345 360.272 37.961C360.517 37.9875 360.733 38.024 360.918 38.0704V41.8289C360.719 41.7693 360.444 41.7162 360.093 41.6698C359.742 41.6234 359.42 41.6002 359.129 41.6002C358.505 41.6002 357.949 41.7361 357.458 42.0079C356.974 42.273 356.59 42.6443 356.305 43.1215C356.026 43.5988 355.887 44.149 355.887 44.7721V53.4127H351.651Z" fill="white"/>
<g clip-path="url(#clip0_76_195)">
<path d="M54.7483 40.4447C50.75 32.5913 40.9646 28.316 32.9262 30.9112C24.1916 33.7311 18.8982 43.5998 21.0958 52.9411C21.9399 56.5542 24.0932 59.5375 27.1264 61.3299C30.1373 63.1297 33.6827 63.5134 37.0508 62.426L47.5592 59.0334C51.3538 57.8084 54.1771 55.1872 55.5437 51.6634C56.9102 48.1396 56.6117 44.1431 54.7483 40.4447Z" fill="#FF742B"/>
<path d="M29.0344 28.3848C32.6678 27.2117 34.6198 23.1834 33.3942 19.3873C32.1687 15.5912 28.2297 13.4647 24.5962 14.6378C20.9628 15.8108 19.0108 19.8391 20.2364 23.6352C21.4619 27.4313 25.4009 29.5578 29.0344 28.3848Z" fill="#FF742B"/>
<path d="M44.8743 26.2977C47.9002 25.3208 49.5257 21.9662 48.5051 18.8049C47.4845 15.6436 44.2043 13.8728 41.1784 14.8496C38.1525 15.8265 36.5271 19.1811 37.5477 22.3424C38.5683 25.5037 41.8485 27.2745 44.8743 26.2977Z" fill="#FF742B"/>
<path d="M55.9351 32.8368C58.3534 32.0561 59.6523 29.375 58.8366 26.8485C58.021 24.3221 55.3996 22.9069 52.9813 23.6876C50.5633 24.4683 49.2641 27.1493 50.0797 29.6756C50.8954 32.2021 53.5171 33.6174 55.9351 32.8368Z" fill="#FF742B"/>
<path d="M17.1638 40.3034C20.1896 39.3265 21.8151 35.9718 20.7945 32.8105C19.7739 29.6492 16.4936 27.8784 13.4678 28.8553C10.4421 29.8321 8.81652 33.1868 9.83712 36.348C10.8577 39.5093 14.138 41.2802 17.1638 40.3034Z" fill="#FF742B"/>
</g>
<defs>
<clipPath id="clip0_76_195">
<rect width="56.6276" height="59.1632" fill="white" transform="translate(0 17.3977) rotate(-17.8924)"/>
</clipPath>
</defs>
</svg>
