<svg width="215" height="74" viewBox="0 0 215 74" fill="none" xmlns="http://www.w3.org/2000/svg">
<path d="M88.176 52.224C86.4027 52.224 85.0213 51.776 84.032 50.88C83.0427 49.9653 82.548 48.612 82.548 46.82V33.604H86.916V46.764C86.916 47.3987 87.084 47.8933 87.42 48.248C87.756 48.584 88.2133 48.752 88.792 48.752C89.4827 48.752 90.0707 48.5653 90.556 48.192L91.732 51.272C91.284 51.5893 90.7427 51.832 90.108 52C89.492 52.1493 88.848 52.224 88.176 52.224ZM80.224 40.632V37.272H90.668V40.632H80.224ZM103.424 52V49.06L103.144 48.416V43.152C103.144 42.2187 102.855 41.4907 102.276 40.968C101.716 40.4453 100.848 40.184 99.672 40.184C98.8693 40.184 98.076 40.3147 97.292 40.576C96.5266 40.8187 95.8733 41.1547 95.332 41.584L93.764 38.532C94.5853 37.9533 95.5746 37.5053 96.732 37.188C97.8893 36.8707 99.0653 36.712 100.26 36.712C102.556 36.712 104.339 37.2533 105.608 38.336C106.877 39.4187 107.512 41.108 107.512 43.404V52H103.424ZM98.832 52.224C97.656 52.224 96.648 52.028 95.808 51.636C94.968 51.2253 94.324 50.6747 93.876 49.984C93.428 49.2933 93.204 48.5187 93.204 47.66C93.204 46.764 93.4186 45.98 93.848 45.308C94.296 44.636 94.996 44.1133 95.948 43.74C96.9 43.348 98.1413 43.152 99.672 43.152H103.676V45.7H100.148C99.1213 45.7 98.412 45.868 98.02 46.204C97.6466 46.54 97.46 46.96 97.46 47.464C97.46 48.024 97.6746 48.472 98.104 48.808C98.552 49.1253 99.1586 49.284 99.924 49.284C100.652 49.284 101.305 49.116 101.884 48.78C102.463 48.4253 102.883 47.912 103.144 47.24L103.816 49.256C103.499 50.2267 102.92 50.964 102.08 51.468C101.24 51.972 100.157 52.224 98.832 52.224ZM118.659 57.656C117.24 57.656 115.868 57.4787 114.543 57.124C113.236 56.788 112.144 56.2747 111.267 55.584L113.003 52.448C113.637 52.9707 114.44 53.3813 115.411 53.68C116.4 53.9973 117.371 54.156 118.323 54.156C119.872 54.156 120.992 53.8107 121.683 53.12C122.392 52.4293 122.747 51.4027 122.747 50.04V47.772L123.027 43.992L122.971 40.184V36.936H127.115V49.48C127.115 52.28 126.387 54.3427 124.931 55.668C123.475 56.9933 121.384 57.656 118.659 57.656ZM117.987 51.272C116.587 51.272 115.317 50.9733 114.179 50.376C113.059 49.76 112.153 48.9107 111.463 47.828C110.791 46.7267 110.455 45.448 110.455 43.992C110.455 42.5173 110.791 41.2387 111.463 40.156C112.153 39.0547 113.059 38.2053 114.179 37.608C115.317 37.0107 116.587 36.712 117.987 36.712C119.256 36.712 120.376 36.9733 121.347 37.496C122.317 38 123.073 38.7933 123.615 39.876C124.156 40.94 124.427 42.312 124.427 43.992C124.427 45.6533 124.156 47.0253 123.615 48.108C123.073 49.172 122.317 49.9653 121.347 50.488C120.376 51.0107 119.256 51.272 117.987 51.272ZM118.855 47.688C119.62 47.688 120.301 47.5387 120.899 47.24C121.496 46.9227 121.963 46.484 122.299 45.924C122.635 45.364 122.803 44.72 122.803 43.992C122.803 43.2453 122.635 42.6013 122.299 42.06C121.963 41.5 121.496 41.0707 120.899 40.772C120.301 40.4547 119.62 40.296 118.855 40.296C118.089 40.296 117.408 40.4547 116.811 40.772C116.213 41.0707 115.737 41.5 115.383 42.06C115.047 42.6013 114.879 43.2453 114.879 43.992C114.879 44.72 115.047 45.364 115.383 45.924C115.737 46.484 116.213 46.9227 116.811 47.24C117.408 47.5387 118.089 47.688 118.855 47.688ZM138.264 57.656C136.845 57.656 135.473 57.4787 134.148 57.124C132.841 56.788 131.749 56.2747 130.872 55.584L132.608 52.448C133.243 52.9707 134.045 53.3813 135.016 53.68C136.005 53.9973 136.976 54.156 137.928 54.156C139.477 54.156 140.597 53.8107 141.288 53.12C141.997 52.4293 142.352 51.4027 142.352 50.04V47.772L142.632 43.992L142.576 40.184V36.936H146.72V49.48C146.72 52.28 145.992 54.3427 144.536 55.668C143.08 56.9933 140.989 57.656 138.264 57.656ZM137.592 51.272C136.192 51.272 134.923 50.9733 133.784 50.376C132.664 49.76 131.759 48.9107 131.068 47.828C130.396 46.7267 130.06 45.448 130.06 43.992C130.06 42.5173 130.396 41.2387 131.068 40.156C131.759 39.0547 132.664 38.2053 133.784 37.608C134.923 37.0107 136.192 36.712 137.592 36.712C138.861 36.712 139.981 36.9733 140.952 37.496C141.923 38 142.679 38.7933 143.22 39.876C143.761 40.94 144.032 42.312 144.032 43.992C144.032 45.6533 143.761 47.0253 143.22 48.108C142.679 49.172 141.923 49.9653 140.952 50.488C139.981 51.0107 138.861 51.272 137.592 51.272ZM138.46 47.688C139.225 47.688 139.907 47.5387 140.504 47.24C141.101 46.9227 141.568 46.484 141.904 45.924C142.24 45.364 142.408 44.72 142.408 43.992C142.408 43.2453 142.24 42.6013 141.904 42.06C141.568 41.5 141.101 41.0707 140.504 40.772C139.907 40.4547 139.225 40.296 138.46 40.296C137.695 40.296 137.013 40.4547 136.416 40.772C135.819 41.0707 135.343 41.5 134.988 42.06C134.652 42.6013 134.484 43.2453 134.484 43.992C134.484 44.72 134.652 45.364 134.988 45.924C135.343 46.484 135.819 46.9227 136.416 47.24C137.013 47.5387 137.695 47.688 138.46 47.688ZM152.69 57.656C151.906 57.656 151.131 57.5347 150.366 57.292C149.6 57.0493 148.975 56.7133 148.49 56.284L150.086 53.176C150.422 53.4747 150.804 53.708 151.234 53.876C151.682 54.044 152.12 54.128 152.55 54.128C153.166 54.128 153.651 53.9787 154.006 53.68C154.379 53.4 154.715 52.924 155.014 52.252L155.798 50.404L156.134 49.928L161.538 36.936H165.738L158.934 52.924C158.448 54.1373 157.888 55.0893 157.254 55.78C156.638 56.4707 155.947 56.956 155.182 57.236C154.435 57.516 153.604 57.656 152.69 57.656ZM155.266 52.588L148.546 36.936H153.054L158.262 49.536L155.266 52.588Z" fill="black"/>
<path d="M176.424 52.224C175.155 52.224 174.044 51.944 173.092 51.384C172.14 50.824 171.393 49.9747 170.852 48.836C170.329 47.6787 170.068 46.2227 170.068 44.468C170.068 42.6947 170.32 41.2387 170.824 40.1C171.328 38.9613 172.056 38.112 173.008 37.552C173.96 36.992 175.099 36.712 176.424 36.712C177.843 36.712 179.112 37.0387 180.232 37.692C181.371 38.3267 182.267 39.2227 182.92 40.38C183.592 41.5373 183.928 42.9 183.928 44.468C183.928 46.0547 183.592 47.4267 182.92 48.584C182.267 49.7413 181.371 50.6373 180.232 51.272C179.112 51.9067 177.843 52.224 176.424 52.224ZM167.52 57.432V36.936H171.692V40.016L171.608 44.496L171.888 48.948V57.432H167.52ZM175.668 48.64C176.396 48.64 177.04 48.472 177.6 48.136C178.179 47.8 178.636 47.324 178.972 46.708C179.327 46.0733 179.504 45.3267 179.504 44.468C179.504 43.5907 179.327 42.844 178.972 42.228C178.636 41.612 178.179 41.136 177.6 40.8C177.04 40.464 176.396 40.296 175.668 40.296C174.94 40.296 174.287 40.464 173.708 40.8C173.129 41.136 172.672 41.612 172.336 42.228C172 42.844 171.832 43.5907 171.832 44.468C171.832 45.3267 172 46.0733 172.336 46.708C172.672 47.324 173.129 47.8 173.708 48.136C174.287 48.472 174.94 48.64 175.668 48.64ZM194.328 52.224C192.611 52.224 191.099 51.888 189.792 51.216C188.504 50.544 187.505 49.6293 186.796 48.472C186.087 47.296 185.732 45.9613 185.732 44.468C185.732 42.956 186.077 41.6213 186.768 40.464C187.477 39.288 188.439 38.3733 189.652 37.72C190.865 37.048 192.237 36.712 193.768 36.712C195.243 36.712 196.568 37.0293 197.744 37.664C198.939 38.28 199.881 39.176 200.572 40.352C201.263 41.5093 201.608 42.9 201.608 44.524C201.608 44.692 201.599 44.888 201.58 45.112C201.561 45.3173 201.543 45.5133 201.524 45.7H189.288V43.152H199.228L197.548 43.908C197.548 43.124 197.389 42.4427 197.072 41.864C196.755 41.2853 196.316 40.8373 195.756 40.52C195.196 40.184 194.543 40.016 193.796 40.016C193.049 40.016 192.387 40.184 191.808 40.52C191.248 40.8373 190.809 41.2947 190.492 41.892C190.175 42.4707 190.016 43.1613 190.016 43.964V44.636C190.016 45.4573 190.193 46.1853 190.548 46.82C190.921 47.436 191.435 47.912 192.088 48.248C192.76 48.5653 193.544 48.724 194.44 48.724C195.243 48.724 195.943 48.6027 196.54 48.36C197.156 48.1173 197.716 47.7533 198.22 47.268L200.544 49.788C199.853 50.572 198.985 51.1787 197.94 51.608C196.895 52.0187 195.691 52.224 194.328 52.224ZM210.676 52.224C208.903 52.224 207.521 51.776 206.532 50.88C205.543 49.9653 205.048 48.612 205.048 46.82V33.604H209.416V46.764C209.416 47.3987 209.584 47.8933 209.92 48.248C210.256 48.584 210.713 48.752 211.292 48.752C211.983 48.752 212.571 48.5653 213.056 48.192L214.232 51.272C213.784 51.5893 213.243 51.832 212.608 52C211.992 52.1493 211.348 52.224 210.676 52.224ZM202.724 40.632V37.272H213.168V40.632H202.724Z" fill="black" fill-opacity="0.5"/>
<g clip-path="url(#clip0_275_5)">
<path d="M54.7483 40.4447C50.75 32.5913 40.9646 28.316 32.9262 30.9112C24.1917 33.7311 18.8982 43.5998 21.0958 52.9411C21.9399 56.5542 24.0932 59.5375 27.1265 61.3299C30.1373 63.1297 33.6828 63.5134 37.0508 62.426L47.5592 59.0334C51.3538 57.8084 54.1771 55.1872 55.5437 51.6634C56.9103 48.1396 56.6118 44.1431 54.7483 40.4447Z" fill="black"/>
<path d="M29.0341 28.3848C32.6676 27.2117 34.6196 23.1834 33.394 19.3873C32.1684 15.5912 28.2295 13.4647 24.596 14.6378C20.9626 15.8108 19.0106 19.8391 20.2362 23.6352C21.4617 27.4313 25.4007 29.5578 29.0341 28.3848Z" fill="black"/>
<path d="M44.8743 26.2977C47.9002 25.3208 49.5257 21.9662 48.5051 18.8049C47.4845 15.6436 44.2043 13.8728 41.1784 14.8496C38.1525 15.8265 36.5271 19.1811 37.5477 22.3424C38.5683 25.5037 41.8485 27.2745 44.8743 26.2977Z" fill="black"/>
<path d="M55.9353 32.8369C58.3535 32.0562 59.6525 29.3751 58.8368 26.8486C58.0212 24.3223 55.3998 22.907 52.9815 23.6878C50.5635 24.4684 49.2642 27.1494 50.0798 29.6757C50.8955 32.2023 53.5172 33.6176 55.9353 32.8369Z" fill="black"/>
<path d="M17.1639 40.3034C20.1897 39.3265 21.8152 35.9718 20.7946 32.8105C19.774 29.6492 16.4937 27.8784 13.468 28.8553C10.4422 29.8321 8.81662 33.1868 9.83722 36.348C10.8578 39.5093 14.1381 41.2802 17.1639 40.3034Z" fill="black"/>
</g>
<defs>
<clipPath id="clip0_275_5">
<rect width="56.6276" height="59.1632" fill="white" transform="translate(0 17.3977) rotate(-17.8924)"/>
</clipPath>
</defs>
</svg>
