<svg width="383" height="74" viewBox="0 0 383 74" fill="none" xmlns="http://www.w3.org/2000/svg">
<path d="M91.704 52.336C90.192 52.336 88.7827 52.0933 87.476 51.608C86.188 51.104 85.068 50.3947 84.116 49.48C83.164 48.5653 82.4173 47.492 81.876 46.26C81.3533 45.028 81.092 43.6747 81.092 42.2C81.092 40.7253 81.3533 39.372 81.876 38.14C82.4173 36.908 83.164 35.8347 84.116 34.92C85.0867 34.0053 86.216 33.3053 87.504 32.82C88.792 32.316 90.2013 32.064 91.732 32.064C93.4307 32.064 94.9613 32.3627 96.324 32.96C97.7053 33.5387 98.8627 34.3973 99.796 35.536L96.884 38.224C96.212 37.4587 95.4653 36.8893 94.644 36.516C93.8227 36.124 92.9267 35.928 91.956 35.928C91.0413 35.928 90.2013 36.0773 89.436 36.376C88.6707 36.6747 88.008 37.104 87.448 37.664C86.888 38.224 86.4493 38.8867 86.132 39.652C85.8333 40.4173 85.684 41.2667 85.684 42.2C85.684 43.1333 85.8333 43.9827 86.132 44.748C86.4493 45.5133 86.888 46.176 87.448 46.736C88.008 47.296 88.6707 47.7253 89.436 48.024C90.2013 48.3227 91.0413 48.472 91.956 48.472C92.9267 48.472 93.8227 48.2853 94.644 47.912C95.4653 47.52 96.212 46.932 96.884 46.148L99.796 48.836C98.8627 49.9747 97.7053 50.8427 96.324 51.44C94.9613 52.0373 93.4213 52.336 91.704 52.336ZM111.707 36.712C112.902 36.712 113.966 36.9547 114.899 37.44C115.851 37.9067 116.598 38.6347 117.139 39.624C117.68 40.5947 117.951 41.8453 117.951 43.376V52H113.583V44.048C113.583 42.8347 113.312 41.9387 112.771 41.36C112.248 40.7813 111.502 40.492 110.531 40.492C109.84 40.492 109.215 40.6413 108.655 40.94C108.114 41.22 107.684 41.6587 107.367 42.256C107.068 42.8533 106.919 43.6187 106.919 44.552V52H102.551V31.224H106.919V41.108L105.939 39.848C106.48 38.84 107.255 38.0653 108.263 37.524C109.271 36.9827 110.419 36.712 111.707 36.712ZM121.911 52V36.936H126.279V52H121.911ZM124.095 34.836C123.292 34.836 122.639 34.6027 122.135 34.136C121.631 33.6693 121.379 33.0907 121.379 32.4C121.379 31.7093 121.631 31.1307 122.135 30.664C122.639 30.1973 123.292 29.964 124.095 29.964C124.897 29.964 125.551 30.188 126.055 30.636C126.559 31.0653 126.811 31.6253 126.811 32.316C126.811 33.044 126.559 33.6507 126.055 34.136C125.569 34.6027 124.916 34.836 124.095 34.836ZM139.236 52.224C137.967 52.224 136.856 51.944 135.904 51.384C134.952 50.824 134.206 49.9747 133.664 48.836C133.142 47.6787 132.88 46.2227 132.88 44.468C132.88 42.6947 133.132 41.2387 133.636 40.1C134.14 38.9613 134.868 38.112 135.82 37.552C136.772 36.992 137.911 36.712 139.236 36.712C140.655 36.712 141.924 37.0387 143.044 37.692C144.183 38.3267 145.079 39.2227 145.732 40.38C146.404 41.5373 146.74 42.9 146.74 44.468C146.74 46.0547 146.404 47.4267 145.732 48.584C145.079 49.7413 144.183 50.6373 143.044 51.272C141.924 51.9067 140.655 52.224 139.236 52.224ZM130.332 57.432V36.936H134.504V40.016L134.42 44.496L134.7 48.948V57.432H130.332ZM138.48 48.64C139.208 48.64 139.852 48.472 140.412 48.136C140.991 47.8 141.448 47.324 141.784 46.708C142.139 46.0733 142.316 45.3267 142.316 44.468C142.316 43.5907 142.139 42.844 141.784 42.228C141.448 41.612 140.991 41.136 140.412 40.8C139.852 40.464 139.208 40.296 138.48 40.296C137.752 40.296 137.099 40.464 136.52 40.8C135.942 41.136 135.484 41.612 135.148 42.228C134.812 42.844 134.644 43.5907 134.644 44.468C134.644 45.3267 134.812 46.0733 135.148 46.708C135.484 47.324 135.942 47.8 136.52 48.136C137.099 48.472 137.752 48.64 138.48 48.64ZM158.568 52.224C157.299 52.224 156.188 51.944 155.236 51.384C154.284 50.824 153.538 49.9747 152.996 48.836C152.474 47.6787 152.212 46.2227 152.212 44.468C152.212 42.6947 152.464 41.2387 152.968 40.1C153.472 38.9613 154.2 38.112 155.152 37.552C156.104 36.992 157.243 36.712 158.568 36.712C159.987 36.712 161.256 37.0387 162.376 37.692C163.515 38.3267 164.411 39.2227 165.064 40.38C165.736 41.5373 166.072 42.9 166.072 44.468C166.072 46.0547 165.736 47.4267 165.064 48.584C164.411 49.7413 163.515 50.6373 162.376 51.272C161.256 51.9067 159.987 52.224 158.568 52.224ZM149.664 57.432V36.936H153.836V40.016L153.752 44.496L154.032 48.948V57.432H149.664ZM157.812 48.64C158.54 48.64 159.184 48.472 159.744 48.136C160.323 47.8 160.78 47.324 161.116 46.708C161.471 46.0733 161.648 45.3267 161.648 44.468C161.648 43.5907 161.471 42.844 161.116 42.228C160.78 41.612 160.323 41.136 159.744 40.8C159.184 40.464 158.54 40.296 157.812 40.296C157.084 40.296 156.431 40.464 155.852 40.8C155.274 41.136 154.816 41.612 154.48 42.228C154.144 42.844 153.976 43.5907 153.976 44.468C153.976 45.3267 154.144 46.0733 154.48 46.708C154.816 47.324 155.274 47.8 155.852 48.136C156.431 48.472 157.084 48.64 157.812 48.64ZM176.472 52.224C174.755 52.224 173.243 51.888 171.936 51.216C170.648 50.544 169.65 49.6293 168.94 48.472C168.231 47.296 167.876 45.9613 167.876 44.468C167.876 42.956 168.222 41.6213 168.912 40.464C169.622 39.288 170.583 38.3733 171.796 37.72C173.01 37.048 174.382 36.712 175.912 36.712C177.387 36.712 178.712 37.0293 179.888 37.664C181.083 38.28 182.026 39.176 182.716 40.352C183.407 41.5093 183.752 42.9 183.752 44.524C183.752 44.692 183.743 44.888 183.724 45.112C183.706 45.3173 183.687 45.5133 183.668 45.7H171.432V43.152H181.372L179.692 43.908C179.692 43.124 179.534 42.4427 179.216 41.864C178.899 41.2853 178.46 40.8373 177.9 40.52C177.34 40.184 176.687 40.016 175.94 40.016C175.194 40.016 174.531 40.184 173.952 40.52C173.392 40.8373 172.954 41.2947 172.636 41.892C172.319 42.4707 172.16 43.1613 172.16 43.964V44.636C172.16 45.4573 172.338 46.1853 172.692 46.82C173.066 47.436 173.579 47.912 174.232 48.248C174.904 48.5653 175.688 48.724 176.584 48.724C177.387 48.724 178.087 48.6027 178.684 48.36C179.3 48.1173 179.86 47.7533 180.364 47.268L182.688 49.788C181.998 50.572 181.13 51.1787 180.084 51.608C179.039 52.0187 177.835 52.224 176.472 52.224ZM193.129 52.224C191.71 52.224 190.431 51.9067 189.293 51.272C188.154 50.6187 187.249 49.7133 186.577 48.556C185.923 47.3987 185.597 46.036 185.597 44.468C185.597 42.8813 185.923 41.5093 186.577 40.352C187.249 39.1947 188.154 38.2987 189.293 37.664C190.431 37.0293 191.71 36.712 193.129 36.712C194.398 36.712 195.509 36.992 196.461 37.552C197.413 38.112 198.15 38.9613 198.673 40.1C199.195 41.2387 199.457 42.6947 199.457 44.468C199.457 46.2227 199.205 47.6787 198.701 48.836C198.197 49.9747 197.469 50.824 196.517 51.384C195.583 51.944 194.454 52.224 193.129 52.224ZM193.885 48.64C194.594 48.64 195.238 48.472 195.817 48.136C196.395 47.8 196.853 47.324 197.189 46.708C197.543 46.0733 197.721 45.3267 197.721 44.468C197.721 43.5907 197.543 42.844 197.189 42.228C196.853 41.612 196.395 41.136 195.817 40.8C195.238 40.464 194.594 40.296 193.885 40.296C193.157 40.296 192.503 40.464 191.925 40.8C191.346 41.136 190.879 41.612 190.525 42.228C190.189 42.844 190.021 43.5907 190.021 44.468C190.021 45.3267 190.189 46.0733 190.525 46.708C190.879 47.324 191.346 47.8 191.925 48.136C192.503 48.472 193.157 48.64 193.885 48.64ZM197.833 52V48.92L197.917 44.44L197.637 39.988V31.224H202.005V52H197.833ZM214.285 52V32.4H222.769C224.524 32.4 226.036 32.6893 227.305 33.268C228.574 33.828 229.554 34.64 230.245 35.704C230.936 36.768 231.281 38.0373 231.281 39.512C231.281 40.968 230.936 42.228 230.245 43.292C229.554 44.356 228.574 45.1773 227.305 45.756C226.036 46.316 224.524 46.596 222.769 46.596H216.805L218.821 44.552V52H214.285ZM218.821 45.056L216.805 42.9H222.517C223.917 42.9 224.962 42.6013 225.653 42.004C226.344 41.4067 226.689 40.576 226.689 39.512C226.689 38.4293 226.344 37.5893 225.653 36.992C224.962 36.3947 223.917 36.096 222.517 36.096H216.805L218.821 33.94V45.056ZM241.66 52.224C239.943 52.224 238.431 51.888 237.124 51.216C235.836 50.544 234.837 49.6293 234.128 48.472C233.419 47.296 233.064 45.9613 233.064 44.468C233.064 42.956 233.409 41.6213 234.1 40.464C234.809 39.288 235.771 38.3733 236.984 37.72C238.197 37.048 239.569 36.712 241.1 36.712C242.575 36.712 243.9 37.0293 245.076 37.664C246.271 38.28 247.213 39.176 247.904 40.352C248.595 41.5093 248.94 42.9 248.94 44.524C248.94 44.692 248.931 44.888 248.912 45.112C248.893 45.3173 248.875 45.5133 248.856 45.7H236.62V43.152H246.56L244.88 43.908C244.88 43.124 244.721 42.4427 244.404 41.864C244.087 41.2853 243.648 40.8373 243.088 40.52C242.528 40.184 241.875 40.016 241.128 40.016C240.381 40.016 239.719 40.184 239.14 40.52C238.58 40.8373 238.141 41.2947 237.824 41.892C237.507 42.4707 237.348 43.1613 237.348 43.964V44.636C237.348 45.4573 237.525 46.1853 237.88 46.82C238.253 47.436 238.767 47.912 239.42 48.248C240.092 48.5653 240.876 48.724 241.772 48.724C242.575 48.724 243.275 48.6027 243.872 48.36C244.488 48.1173 245.048 47.7533 245.552 47.268L247.876 49.788C247.185 50.572 246.317 51.1787 245.272 51.608C244.227 52.0187 243.023 52.224 241.66 52.224ZM258.008 52.224C256.235 52.224 254.853 51.776 253.864 50.88C252.875 49.9653 252.38 48.612 252.38 46.82V33.604H256.748V46.764C256.748 47.3987 256.916 47.8933 257.252 48.248C257.588 48.584 258.045 48.752 258.624 48.752C259.315 48.752 259.903 48.5653 260.388 48.192L261.564 51.272C261.116 51.5893 260.575 51.832 259.94 52C259.324 52.1493 258.68 52.224 258.008 52.224ZM250.056 40.632V37.272H260.5V40.632H250.056ZM269.084 52.224C267.796 52.224 266.555 52.0747 265.36 51.776C264.184 51.4587 263.251 51.0667 262.56 50.6L264.016 47.464C264.707 47.8933 265.519 48.248 266.452 48.528C267.404 48.7893 268.337 48.92 269.252 48.92C270.26 48.92 270.969 48.7987 271.38 48.556C271.809 48.3133 272.024 47.9773 272.024 47.548C272.024 47.1933 271.856 46.932 271.52 46.764C271.203 46.5773 270.773 46.4373 270.232 46.344C269.691 46.2507 269.093 46.1573 268.44 46.064C267.805 45.9707 267.161 45.8493 266.508 45.7C265.855 45.532 265.257 45.2893 264.716 44.972C264.175 44.6547 263.736 44.2253 263.4 43.684C263.083 43.1427 262.924 42.4427 262.924 41.584C262.924 40.632 263.195 39.792 263.736 39.064C264.296 38.336 265.099 37.7667 266.144 37.356C267.189 36.9267 268.44 36.712 269.896 36.712C270.923 36.712 271.968 36.824 273.032 37.048C274.096 37.272 274.983 37.5987 275.692 38.028L274.236 41.136C273.508 40.7067 272.771 40.4173 272.024 40.268C271.296 40.1 270.587 40.016 269.896 40.016C268.925 40.016 268.216 40.1467 267.768 40.408C267.32 40.6693 267.096 41.0053 267.096 41.416C267.096 41.7893 267.255 42.0693 267.572 42.256C267.908 42.4427 268.347 42.592 268.888 42.704C269.429 42.816 270.017 42.9187 270.652 43.012C271.305 43.0867 271.959 43.208 272.612 43.376C273.265 43.544 273.853 43.7867 274.376 44.104C274.917 44.4027 275.356 44.8227 275.692 45.364C276.028 45.8867 276.196 46.5773 276.196 47.436C276.196 48.3693 275.916 49.2 275.356 49.928C274.796 50.6373 273.984 51.1973 272.92 51.608C271.875 52.0187 270.596 52.224 269.084 52.224ZM300.569 32.4H305.105V52H300.569V32.4ZM291.665 52H287.129V32.4H291.665V52ZM300.905 43.964H291.329V40.128H300.905V43.964ZM316.91 52.224C315.193 52.224 313.681 51.888 312.374 51.216C311.086 50.544 310.087 49.6293 309.378 48.472C308.669 47.296 308.314 45.9613 308.314 44.468C308.314 42.956 308.659 41.6213 309.35 40.464C310.059 39.288 311.021 38.3733 312.234 37.72C313.447 37.048 314.819 36.712 316.35 36.712C317.825 36.712 319.15 37.0293 320.326 37.664C321.521 38.28 322.463 39.176 323.154 40.352C323.845 41.5093 324.19 42.9 324.19 44.524C324.19 44.692 324.181 44.888 324.162 45.112C324.143 45.3173 324.125 45.5133 324.106 45.7H311.87V43.152H321.81L320.13 43.908C320.13 43.124 319.971 42.4427 319.654 41.864C319.337 41.2853 318.898 40.8373 318.338 40.52C317.778 40.184 317.125 40.016 316.378 40.016C315.631 40.016 314.969 40.184 314.39 40.52C313.83 40.8373 313.391 41.2947 313.074 41.892C312.757 42.4707 312.598 43.1613 312.598 43.964V44.636C312.598 45.4573 312.775 46.1853 313.13 46.82C313.503 47.436 314.017 47.912 314.67 48.248C315.342 48.5653 316.126 48.724 317.022 48.724C317.825 48.724 318.525 48.6027 319.122 48.36C319.738 48.1173 320.298 47.7533 320.802 47.268L323.126 49.788C322.435 50.572 321.567 51.1787 320.522 51.608C319.477 52.0187 318.273 52.224 316.91 52.224ZM327.098 52V31.224H331.466V52H327.098ZM344.424 52.224C343.155 52.224 342.044 51.944 341.092 51.384C340.14 50.824 339.393 49.9747 338.852 48.836C338.329 47.6787 338.068 46.2227 338.068 44.468C338.068 42.6947 338.32 41.2387 338.824 40.1C339.328 38.9613 340.056 38.112 341.008 37.552C341.96 36.992 343.099 36.712 344.424 36.712C345.843 36.712 347.112 37.0387 348.232 37.692C349.371 38.3267 350.267 39.2227 350.92 40.38C351.592 41.5373 351.928 42.9 351.928 44.468C351.928 46.0547 351.592 47.4267 350.92 48.584C350.267 49.7413 349.371 50.6373 348.232 51.272C347.112 51.9067 345.843 52.224 344.424 52.224ZM335.52 57.432V36.936H339.692V40.016L339.608 44.496L339.888 48.948V57.432H335.52ZM343.668 48.64C344.396 48.64 345.04 48.472 345.6 48.136C346.179 47.8 346.636 47.324 346.972 46.708C347.327 46.0733 347.504 45.3267 347.504 44.468C347.504 43.5907 347.327 42.844 346.972 42.228C346.636 41.612 346.179 41.136 345.6 40.8C345.04 40.464 344.396 40.296 343.668 40.296C342.94 40.296 342.287 40.464 341.708 40.8C341.129 41.136 340.672 41.612 340.336 42.228C340 42.844 339.832 43.5907 339.832 44.468C339.832 45.3267 340 46.0733 340.336 46.708C340.672 47.324 341.129 47.8 341.708 48.136C342.287 48.472 342.94 48.64 343.668 48.64ZM362.328 52.224C360.611 52.224 359.099 51.888 357.792 51.216C356.504 50.544 355.505 49.6293 354.796 48.472C354.087 47.296 353.732 45.9613 353.732 44.468C353.732 42.956 354.077 41.6213 354.768 40.464C355.477 39.288 356.439 38.3733 357.652 37.72C358.865 37.048 360.237 36.712 361.768 36.712C363.243 36.712 364.568 37.0293 365.744 37.664C366.939 38.28 367.881 39.176 368.572 40.352C369.263 41.5093 369.608 42.9 369.608 44.524C369.608 44.692 369.599 44.888 369.58 45.112C369.561 45.3173 369.543 45.5133 369.524 45.7H357.288V43.152H367.228L365.548 43.908C365.548 43.124 365.389 42.4427 365.072 41.864C364.755 41.2853 364.316 40.8373 363.756 40.52C363.196 40.184 362.543 40.016 361.796 40.016C361.049 40.016 360.387 40.184 359.808 40.52C359.248 40.8373 358.809 41.2947 358.492 41.892C358.175 42.4707 358.016 43.1613 358.016 43.964V44.636C358.016 45.4573 358.193 46.1853 358.548 46.82C358.921 47.436 359.435 47.912 360.088 48.248C360.76 48.5653 361.544 48.724 362.44 48.724C363.243 48.724 363.943 48.6027 364.54 48.36C365.156 48.1173 365.716 47.7533 366.22 47.268L368.544 49.788C367.853 50.572 366.985 51.1787 365.94 51.608C364.895 52.0187 363.691 52.224 362.328 52.224ZM372.516 52V36.936H376.688V41.192L376.1 39.96C376.548 38.896 377.267 38.0933 378.256 37.552C379.245 36.992 380.449 36.712 381.868 36.712V40.744C381.681 40.7253 381.513 40.716 381.364 40.716C381.215 40.6973 381.056 40.688 380.888 40.688C379.693 40.688 378.723 41.0333 377.976 41.724C377.248 42.396 376.884 43.4507 376.884 44.888V52H372.516Z" fill="white"/>
<g clip-path="url(#clip0_76_195)">
<path d="M54.7483 40.4447C50.75 32.5913 40.9646 28.316 32.9262 30.9112C24.1916 33.7311 18.8982 43.5998 21.0958 52.9411C21.9399 56.5542 24.0931 59.5375 27.1264 61.3299C30.1373 63.1297 33.6827 63.5134 37.0508 62.426L47.5591 59.0335C51.3538 57.8084 54.1771 55.1872 55.5437 51.6634C56.9102 48.1396 56.6117 44.1431 54.7483 40.4447Z" fill="#FF742B"/>
<path d="M29.0344 28.3848C32.6678 27.2117 34.6198 23.1834 33.3942 19.3873C32.1687 15.5912 28.2297 13.4647 24.5962 14.6378C20.9628 15.8108 19.0108 19.8391 20.2364 23.6352C21.4619 27.4313 25.4009 29.5578 29.0344 28.3848Z" fill="#FF742B"/>
<path d="M44.8743 26.2977C47.9002 25.3208 49.5257 21.9662 48.5051 18.8049C47.4845 15.6436 44.2043 13.8728 41.1784 14.8496C38.1525 15.8265 36.5271 19.1811 37.5477 22.3424C38.5683 25.5037 41.8485 27.2745 44.8743 26.2977Z" fill="#FF742B"/>
<path d="M55.9351 32.8368C58.3534 32.0561 59.6523 29.375 58.8366 26.8485C58.021 24.3221 55.3996 22.9069 52.9813 23.6876C50.5633 24.4683 49.2641 27.1493 50.0797 29.6756C50.8954 32.2021 53.5171 33.6174 55.9351 32.8368Z" fill="#FF742B"/>
<path d="M17.1638 40.3034C20.1896 39.3265 21.8151 35.9718 20.7945 32.8105C19.7739 29.6492 16.4936 27.8784 13.4678 28.8553C10.4421 29.8321 8.81652 33.1868 9.83712 36.348C10.8577 39.5093 14.138 41.2802 17.1638 40.3034Z" fill="#FF742B"/>
</g>
<defs>
<clipPath id="clip0_76_195">
<rect width="56.6276" height="59.1632" fill="white" transform="translate(0 17.3977) rotate(-17.8924)"/>
</clipPath>
</defs>
</svg>
