<svg width="382" height="74" viewBox="0 0 382 74" fill="none" xmlns="http://www.w3.org/2000/svg">
<path d="M90.704 50.336C89.192 50.336 87.7827 50.0933 86.476 49.608C85.188 49.104 84.068 48.3947 83.116 47.48C82.164 46.5653 81.4173 45.492 80.876 44.26C80.3533 43.028 80.092 41.6747 80.092 40.2C80.092 38.7253 80.3533 37.372 80.876 36.14C81.4173 34.908 82.164 33.8347 83.116 32.92C84.0867 32.0053 85.216 31.3053 86.504 30.82C87.792 30.316 89.2013 30.064 90.732 30.064C92.4307 30.064 93.9613 30.3627 95.324 30.96C96.7053 31.5387 97.8627 32.3973 98.796 33.536L95.884 36.224C95.212 35.4587 94.4653 34.8893 93.644 34.516C92.8227 34.124 91.9267 33.928 90.956 33.928C90.0413 33.928 89.2013 34.0773 88.436 34.376C87.6707 34.6747 87.008 35.104 86.448 35.664C85.888 36.224 85.4493 36.8867 85.132 37.652C84.8333 38.4173 84.684 39.2667 84.684 40.2C84.684 41.1333 84.8333 41.9827 85.132 42.748C85.4493 43.5133 85.888 44.176 86.448 44.736C87.008 45.296 87.6707 45.7253 88.436 46.024C89.2013 46.3227 90.0413 46.472 90.956 46.472C91.9267 46.472 92.8227 46.2853 93.644 45.912C94.4653 45.52 95.212 44.932 95.884 44.148L98.796 46.836C97.8627 47.9747 96.7053 48.8427 95.324 49.44C93.9613 50.0373 92.4213 50.336 90.704 50.336ZM110.707 34.712C111.902 34.712 112.966 34.9547 113.899 35.44C114.851 35.9067 115.598 36.6347 116.139 37.624C116.68 38.5947 116.951 39.8453 116.951 41.376V50H112.583V42.048C112.583 40.8347 112.312 39.9387 111.771 39.36C111.248 38.7813 110.502 38.492 109.531 38.492C108.84 38.492 108.215 38.6413 107.655 38.94C107.114 39.22 106.684 39.6587 106.367 40.256C106.068 40.8533 105.919 41.6187 105.919 42.552V50H101.551V29.224H105.919V39.108L104.939 37.848C105.48 36.84 106.255 36.0653 107.263 35.524C108.271 34.9827 109.419 34.712 110.707 34.712ZM120.911 50V34.936H125.279V50H120.911ZM123.095 32.836C122.292 32.836 121.639 32.6027 121.135 32.136C120.631 31.6693 120.379 31.0907 120.379 30.4C120.379 29.7093 120.631 29.1307 121.135 28.664C121.639 28.1973 122.292 27.964 123.095 27.964C123.897 27.964 124.551 28.188 125.055 28.636C125.559 29.0653 125.811 29.6253 125.811 30.316C125.811 31.044 125.559 31.6507 125.055 32.136C124.569 32.6027 123.916 32.836 123.095 32.836ZM138.236 50.224C136.967 50.224 135.856 49.944 134.904 49.384C133.952 48.824 133.206 47.9747 132.664 46.836C132.142 45.6787 131.88 44.2227 131.88 42.468C131.88 40.6947 132.132 39.2387 132.636 38.1C133.14 36.9613 133.868 36.112 134.82 35.552C135.772 34.992 136.911 34.712 138.236 34.712C139.655 34.712 140.924 35.0387 142.044 35.692C143.183 36.3267 144.079 37.2227 144.732 38.38C145.404 39.5373 145.74 40.9 145.74 42.468C145.74 44.0547 145.404 45.4267 144.732 46.584C144.079 47.7413 143.183 48.6373 142.044 49.272C140.924 49.9067 139.655 50.224 138.236 50.224ZM129.332 55.432V34.936H133.504V38.016L133.42 42.496L133.7 46.948V55.432H129.332ZM137.48 46.64C138.208 46.64 138.852 46.472 139.412 46.136C139.991 45.8 140.448 45.324 140.784 44.708C141.139 44.0733 141.316 43.3267 141.316 42.468C141.316 41.5907 141.139 40.844 140.784 40.228C140.448 39.612 139.991 39.136 139.412 38.8C138.852 38.464 138.208 38.296 137.48 38.296C136.752 38.296 136.099 38.464 135.52 38.8C134.942 39.136 134.484 39.612 134.148 40.228C133.812 40.844 133.644 41.5907 133.644 42.468C133.644 43.3267 133.812 44.0733 134.148 44.708C134.484 45.324 134.942 45.8 135.52 46.136C136.099 46.472 136.752 46.64 137.48 46.64ZM157.568 50.224C156.299 50.224 155.188 49.944 154.236 49.384C153.284 48.824 152.538 47.9747 151.996 46.836C151.474 45.6787 151.212 44.2227 151.212 42.468C151.212 40.6947 151.464 39.2387 151.968 38.1C152.472 36.9613 153.2 36.112 154.152 35.552C155.104 34.992 156.243 34.712 157.568 34.712C158.987 34.712 160.256 35.0387 161.376 35.692C162.515 36.3267 163.411 37.2227 164.064 38.38C164.736 39.5373 165.072 40.9 165.072 42.468C165.072 44.0547 164.736 45.4267 164.064 46.584C163.411 47.7413 162.515 48.6373 161.376 49.272C160.256 49.9067 158.987 50.224 157.568 50.224ZM148.664 55.432V34.936H152.836V38.016L152.752 42.496L153.032 46.948V55.432H148.664ZM156.812 46.64C157.54 46.64 158.184 46.472 158.744 46.136C159.323 45.8 159.78 45.324 160.116 44.708C160.471 44.0733 160.648 43.3267 160.648 42.468C160.648 41.5907 160.471 40.844 160.116 40.228C159.78 39.612 159.323 39.136 158.744 38.8C158.184 38.464 157.54 38.296 156.812 38.296C156.084 38.296 155.431 38.464 154.852 38.8C154.274 39.136 153.816 39.612 153.48 40.228C153.144 40.844 152.976 41.5907 152.976 42.468C152.976 43.3267 153.144 44.0733 153.48 44.708C153.816 45.324 154.274 45.8 154.852 46.136C155.431 46.472 156.084 46.64 156.812 46.64ZM175.472 50.224C173.755 50.224 172.243 49.888 170.936 49.216C169.648 48.544 168.65 47.6293 167.94 46.472C167.231 45.296 166.876 43.9613 166.876 42.468C166.876 40.956 167.222 39.6213 167.912 38.464C168.622 37.288 169.583 36.3733 170.796 35.72C172.01 35.048 173.382 34.712 174.912 34.712C176.387 34.712 177.712 35.0293 178.888 35.664C180.083 36.28 181.026 37.176 181.716 38.352C182.407 39.5093 182.752 40.9 182.752 42.524C182.752 42.692 182.743 42.888 182.724 43.112C182.706 43.3173 182.687 43.5133 182.668 43.7H170.432V41.152H180.372L178.692 41.908C178.692 41.124 178.534 40.4427 178.216 39.864C177.899 39.2853 177.46 38.8373 176.9 38.52C176.34 38.184 175.687 38.016 174.94 38.016C174.194 38.016 173.531 38.184 172.952 38.52C172.392 38.8373 171.954 39.2947 171.636 39.892C171.319 40.4707 171.16 41.1613 171.16 41.964V42.636C171.16 43.4573 171.338 44.1853 171.692 44.82C172.066 45.436 172.579 45.912 173.232 46.248C173.904 46.5653 174.688 46.724 175.584 46.724C176.387 46.724 177.087 46.6027 177.684 46.36C178.3 46.1173 178.86 45.7533 179.364 45.268L181.688 47.788C180.998 48.572 180.13 49.1787 179.084 49.608C178.039 50.0187 176.835 50.224 175.472 50.224ZM192.129 50.224C190.71 50.224 189.431 49.9067 188.293 49.272C187.154 48.6187 186.249 47.7133 185.577 46.556C184.923 45.3987 184.597 44.036 184.597 42.468C184.597 40.8813 184.923 39.5093 185.577 38.352C186.249 37.1947 187.154 36.2987 188.293 35.664C189.431 35.0293 190.71 34.712 192.129 34.712C193.398 34.712 194.509 34.992 195.461 35.552C196.413 36.112 197.15 36.9613 197.673 38.1C198.195 39.2387 198.457 40.6947 198.457 42.468C198.457 44.2227 198.205 45.6787 197.701 46.836C197.197 47.9747 196.469 48.824 195.517 49.384C194.583 49.944 193.454 50.224 192.129 50.224ZM192.885 46.64C193.594 46.64 194.238 46.472 194.817 46.136C195.395 45.8 195.853 45.324 196.189 44.708C196.543 44.0733 196.721 43.3267 196.721 42.468C196.721 41.5907 196.543 40.844 196.189 40.228C195.853 39.612 195.395 39.136 194.817 38.8C194.238 38.464 193.594 38.296 192.885 38.296C192.157 38.296 191.503 38.464 190.925 38.8C190.346 39.136 189.879 39.612 189.525 40.228C189.189 40.844 189.021 41.5907 189.021 42.468C189.021 43.3267 189.189 44.0733 189.525 44.708C189.879 45.324 190.346 45.8 190.925 46.136C191.503 46.472 192.157 46.64 192.885 46.64ZM196.833 50V46.92L196.917 42.44L196.637 37.988V29.224H201.005V50H196.833ZM213.285 50V30.4H221.769C223.524 30.4 225.036 30.6893 226.305 31.268C227.574 31.828 228.554 32.64 229.245 33.704C229.936 34.768 230.281 36.0373 230.281 37.512C230.281 38.968 229.936 40.228 229.245 41.292C228.554 42.356 227.574 43.1773 226.305 43.756C225.036 44.316 223.524 44.596 221.769 44.596H215.805L217.821 42.552V50H213.285ZM217.821 43.056L215.805 40.9H221.517C222.917 40.9 223.962 40.6013 224.653 40.004C225.344 39.4067 225.689 38.576 225.689 37.512C225.689 36.4293 225.344 35.5893 224.653 34.992C223.962 34.3947 222.917 34.096 221.517 34.096H215.805L217.821 31.94V43.056ZM240.66 50.224C238.943 50.224 237.431 49.888 236.124 49.216C234.836 48.544 233.837 47.6293 233.128 46.472C232.419 45.296 232.064 43.9613 232.064 42.468C232.064 40.956 232.409 39.6213 233.1 38.464C233.809 37.288 234.771 36.3733 235.984 35.72C237.197 35.048 238.569 34.712 240.1 34.712C241.575 34.712 242.9 35.0293 244.076 35.664C245.271 36.28 246.213 37.176 246.904 38.352C247.595 39.5093 247.94 40.9 247.94 42.524C247.94 42.692 247.931 42.888 247.912 43.112C247.893 43.3173 247.875 43.5133 247.856 43.7H235.62V41.152H245.56L243.88 41.908C243.88 41.124 243.721 40.4427 243.404 39.864C243.087 39.2853 242.648 38.8373 242.088 38.52C241.528 38.184 240.875 38.016 240.128 38.016C239.381 38.016 238.719 38.184 238.14 38.52C237.58 38.8373 237.141 39.2947 236.824 39.892C236.507 40.4707 236.348 41.1613 236.348 41.964V42.636C236.348 43.4573 236.525 44.1853 236.88 44.82C237.253 45.436 237.767 45.912 238.42 46.248C239.092 46.5653 239.876 46.724 240.772 46.724C241.575 46.724 242.275 46.6027 242.872 46.36C243.488 46.1173 244.048 45.7533 244.552 45.268L246.876 47.788C246.185 48.572 245.317 49.1787 244.272 49.608C243.227 50.0187 242.023 50.224 240.66 50.224ZM257.008 50.224C255.235 50.224 253.853 49.776 252.864 48.88C251.875 47.9653 251.38 46.612 251.38 44.82V31.604H255.748V44.764C255.748 45.3987 255.916 45.8933 256.252 46.248C256.588 46.584 257.045 46.752 257.624 46.752C258.315 46.752 258.903 46.5653 259.388 46.192L260.564 49.272C260.116 49.5893 259.575 49.832 258.94 50C258.324 50.1493 257.68 50.224 257.008 50.224ZM249.056 38.632V35.272H259.5V38.632H249.056ZM268.084 50.224C266.796 50.224 265.555 50.0747 264.36 49.776C263.184 49.4587 262.251 49.0667 261.56 48.6L263.016 45.464C263.707 45.8933 264.519 46.248 265.452 46.528C266.404 46.7893 267.337 46.92 268.252 46.92C269.26 46.92 269.969 46.7987 270.38 46.556C270.809 46.3133 271.024 45.9773 271.024 45.548C271.024 45.1933 270.856 44.932 270.52 44.764C270.203 44.5773 269.773 44.4373 269.232 44.344C268.691 44.2507 268.093 44.1573 267.44 44.064C266.805 43.9707 266.161 43.8493 265.508 43.7C264.855 43.532 264.257 43.2893 263.716 42.972C263.175 42.6547 262.736 42.2253 262.4 41.684C262.083 41.1427 261.924 40.4427 261.924 39.584C261.924 38.632 262.195 37.792 262.736 37.064C263.296 36.336 264.099 35.7667 265.144 35.356C266.189 34.9267 267.44 34.712 268.896 34.712C269.923 34.712 270.968 34.824 272.032 35.048C273.096 35.272 273.983 35.5987 274.692 36.028L273.236 39.136C272.508 38.7067 271.771 38.4173 271.024 38.268C270.296 38.1 269.587 38.016 268.896 38.016C267.925 38.016 267.216 38.1467 266.768 38.408C266.32 38.6693 266.096 39.0053 266.096 39.416C266.096 39.7893 266.255 40.0693 266.572 40.256C266.908 40.4427 267.347 40.592 267.888 40.704C268.429 40.816 269.017 40.9187 269.652 41.012C270.305 41.0867 270.959 41.208 271.612 41.376C272.265 41.544 272.853 41.7867 273.376 42.104C273.917 42.4027 274.356 42.8227 274.692 43.364C275.028 43.8867 275.196 44.5773 275.196 45.436C275.196 46.3693 274.916 47.2 274.356 47.928C273.796 48.6373 272.984 49.1973 271.92 49.608C270.875 50.0187 269.596 50.224 268.084 50.224ZM299.569 30.4H304.105V50H299.569V30.4ZM290.665 50H286.129V30.4H290.665V50ZM299.905 41.964H290.329V38.128H299.905V41.964ZM315.91 50.224C314.193 50.224 312.681 49.888 311.374 49.216C310.086 48.544 309.087 47.6293 308.378 46.472C307.669 45.296 307.314 43.9613 307.314 42.468C307.314 40.956 307.659 39.6213 308.35 38.464C309.059 37.288 310.021 36.3733 311.234 35.72C312.447 35.048 313.819 34.712 315.35 34.712C316.825 34.712 318.15 35.0293 319.326 35.664C320.521 36.28 321.463 37.176 322.154 38.352C322.845 39.5093 323.19 40.9 323.19 42.524C323.19 42.692 323.181 42.888 323.162 43.112C323.143 43.3173 323.125 43.5133 323.106 43.7H310.87V41.152H320.81L319.13 41.908C319.13 41.124 318.971 40.4427 318.654 39.864C318.337 39.2853 317.898 38.8373 317.338 38.52C316.778 38.184 316.125 38.016 315.378 38.016C314.631 38.016 313.969 38.184 313.39 38.52C312.83 38.8373 312.391 39.2947 312.074 39.892C311.757 40.4707 311.598 41.1613 311.598 41.964V42.636C311.598 43.4573 311.775 44.1853 312.13 44.82C312.503 45.436 313.017 45.912 313.67 46.248C314.342 46.5653 315.126 46.724 316.022 46.724C316.825 46.724 317.525 46.6027 318.122 46.36C318.738 46.1173 319.298 45.7533 319.802 45.268L322.126 47.788C321.435 48.572 320.567 49.1787 319.522 49.608C318.477 50.0187 317.273 50.224 315.91 50.224ZM326.098 50V29.224H330.466V50H326.098ZM343.424 50.224C342.155 50.224 341.044 49.944 340.092 49.384C339.14 48.824 338.393 47.9747 337.852 46.836C337.329 45.6787 337.068 44.2227 337.068 42.468C337.068 40.6947 337.32 39.2387 337.824 38.1C338.328 36.9613 339.056 36.112 340.008 35.552C340.96 34.992 342.099 34.712 343.424 34.712C344.843 34.712 346.112 35.0387 347.232 35.692C348.371 36.3267 349.267 37.2227 349.92 38.38C350.592 39.5373 350.928 40.9 350.928 42.468C350.928 44.0547 350.592 45.4267 349.92 46.584C349.267 47.7413 348.371 48.6373 347.232 49.272C346.112 49.9067 344.843 50.224 343.424 50.224ZM334.52 55.432V34.936H338.692V38.016L338.608 42.496L338.888 46.948V55.432H334.52ZM342.668 46.64C343.396 46.64 344.04 46.472 344.6 46.136C345.179 45.8 345.636 45.324 345.972 44.708C346.327 44.0733 346.504 43.3267 346.504 42.468C346.504 41.5907 346.327 40.844 345.972 40.228C345.636 39.612 345.179 39.136 344.6 38.8C344.04 38.464 343.396 38.296 342.668 38.296C341.94 38.296 341.287 38.464 340.708 38.8C340.129 39.136 339.672 39.612 339.336 40.228C339 40.844 338.832 41.5907 338.832 42.468C338.832 43.3267 339 44.0733 339.336 44.708C339.672 45.324 340.129 45.8 340.708 46.136C341.287 46.472 341.94 46.64 342.668 46.64ZM361.328 50.224C359.611 50.224 358.099 49.888 356.792 49.216C355.504 48.544 354.505 47.6293 353.796 46.472C353.087 45.296 352.732 43.9613 352.732 42.468C352.732 40.956 353.077 39.6213 353.768 38.464C354.477 37.288 355.439 36.3733 356.652 35.72C357.865 35.048 359.237 34.712 360.768 34.712C362.243 34.712 363.568 35.0293 364.744 35.664C365.939 36.28 366.881 37.176 367.572 38.352C368.263 39.5093 368.608 40.9 368.608 42.524C368.608 42.692 368.599 42.888 368.58 43.112C368.561 43.3173 368.543 43.5133 368.524 43.7H356.288V41.152H366.228L364.548 41.908C364.548 41.124 364.389 40.4427 364.072 39.864C363.755 39.2853 363.316 38.8373 362.756 38.52C362.196 38.184 361.543 38.016 360.796 38.016C360.049 38.016 359.387 38.184 358.808 38.52C358.248 38.8373 357.809 39.2947 357.492 39.892C357.175 40.4707 357.016 41.1613 357.016 41.964V42.636C357.016 43.4573 357.193 44.1853 357.548 44.82C357.921 45.436 358.435 45.912 359.088 46.248C359.76 46.5653 360.544 46.724 361.44 46.724C362.243 46.724 362.943 46.6027 363.54 46.36C364.156 46.1173 364.716 45.7533 365.22 45.268L367.544 47.788C366.853 48.572 365.985 49.1787 364.94 49.608C363.895 50.0187 362.691 50.224 361.328 50.224ZM371.516 50V34.936H375.688V39.192L375.1 37.96C375.548 36.896 376.267 36.0933 377.256 35.552C378.245 34.992 379.449 34.712 380.868 34.712V38.744C380.681 38.7253 380.513 38.716 380.364 38.716C380.215 38.6973 380.056 38.688 379.888 38.688C378.693 38.688 377.723 39.0333 376.976 39.724C376.248 40.396 375.884 41.4507 375.884 42.888V50H371.516Z" fill="black"/>
<g clip-path="url(#clip0_152_52)">
<path d="M54.7483 40.4448C50.75 32.5914 40.9646 28.3161 32.9262 30.9113C24.1917 33.7312 18.8982 43.5999 21.0958 52.9413C21.9399 56.5544 24.0932 59.5376 27.1265 61.3301C30.1373 63.1298 33.6828 63.5135 37.0508 62.4261L47.5592 59.0336C51.3538 57.8085 54.1771 55.1873 55.5437 51.6635C56.9103 48.1398 56.6118 44.1433 54.7483 40.4448Z" fill="#FF742B"/>
<path d="M29.0341 28.3849C32.6676 27.2118 34.6196 23.1835 33.394 19.3874C32.1684 15.5913 28.2295 13.4648 24.596 14.6379C20.9626 15.8109 19.0106 19.8392 20.2362 23.6353C21.4617 27.4315 25.4007 29.5579 29.0341 28.3849Z" fill="#FF742B"/>
<path d="M44.8743 26.2978C47.9002 25.3209 49.5257 21.9663 48.5051 18.805C47.4845 15.6437 44.2043 13.8729 41.1784 14.8498C38.1525 15.8266 36.5271 19.1812 37.5477 22.3425C38.5683 25.5038 41.8485 27.2747 44.8743 26.2978Z" fill="#FF742B"/>
<path d="M55.9353 32.8369C58.3535 32.0562 59.6525 29.3751 58.8368 26.8486C58.0212 24.3223 55.3998 22.907 52.9815 23.6878C50.5635 24.4684 49.2642 27.1494 50.0798 29.6757C50.8955 32.2023 53.5172 33.6176 55.9353 32.8369Z" fill="#FF742B"/>
<path d="M17.1639 40.3035C20.1897 39.3266 21.8152 35.9719 20.7946 32.8106C19.774 29.6494 16.4937 27.8785 13.468 28.8554C10.4422 29.8322 8.81662 33.1869 9.83722 36.3482C10.8578 39.5095 14.1381 41.2804 17.1639 40.3035Z" fill="#FF742B"/>
</g>
<defs>
<clipPath id="clip0_152_52">
<rect width="56.6276" height="59.1632" fill="white" transform="translate(0 17.3978) rotate(-17.8924)"/>
</clipPath>
</defs>
</svg>
