<svg width="384" height="74" viewBox="0 0 384 74" fill="none" xmlns="http://www.w3.org/2000/svg">
<path d="M91.8368 53.7488C90.3248 53.7488 88.9155 53.5062 87.6088 53.0208C86.3208 52.5168 85.2008 51.8075 84.2488 50.8928C83.2968 49.9782 82.5501 48.9048 82.0088 47.6728C81.4861 46.4408 81.2248 45.0875 81.2248 43.6128C81.2248 42.1382 81.4861 40.7848 82.0088 39.5528C82.5501 38.3208 83.2968 37.2475 84.2488 36.3328C85.2195 35.4182 86.3488 34.7182 87.6368 34.2328C88.9248 33.7288 90.3341 33.4768 91.8648 33.4768C93.5635 33.4768 95.0941 33.7755 96.4568 34.3728C97.8381 34.9515 98.9955 35.8102 99.9288 36.9488L97.0168 39.6368C96.3448 38.8715 95.5981 38.3022 94.7768 37.9288C93.9555 37.5368 93.0595 37.3408 92.0888 37.3408C91.1741 37.3408 90.3341 37.4902 89.5688 37.7888C88.8035 38.0875 88.1408 38.5168 87.5808 39.0768C87.0208 39.6368 86.5821 40.2995 86.2648 41.0648C85.9661 41.8302 85.8168 42.6795 85.8168 43.6128C85.8168 44.5462 85.9661 45.3955 86.2648 46.1608C86.5821 46.9262 87.0208 47.5888 87.5808 48.1488C88.1408 48.7088 88.8035 49.1382 89.5688 49.4368C90.3341 49.7355 91.1741 49.8848 92.0888 49.8848C93.0595 49.8848 93.9555 49.6982 94.7768 49.3248C95.5981 48.9328 96.3448 48.3448 97.0168 47.5608L99.9288 50.2488C98.9955 51.3875 97.8381 52.2555 96.4568 52.8528C95.0941 53.4502 93.5541 53.7488 91.8368 53.7488ZM111.84 38.1248C113.035 38.1248 114.099 38.3675 115.032 38.8528C115.984 39.3195 116.731 40.0475 117.272 41.0368C117.813 42.0075 118.084 43.2582 118.084 44.7888V53.4128H113.716V45.4608C113.716 44.2475 113.445 43.3515 112.904 42.7728C112.381 42.1942 111.635 41.9048 110.664 41.9048C109.973 41.9048 109.348 42.0542 108.788 42.3528C108.247 42.6328 107.817 43.0715 107.5 43.6688C107.201 44.2662 107.052 45.0315 107.052 45.9648V53.4128H102.684V32.6368H107.052V42.5208L106.072 41.2608C106.613 40.2528 107.388 39.4782 108.396 38.9368C109.404 38.3955 110.552 38.1248 111.84 38.1248ZM122.043 53.4128V38.3488H126.411V53.4128H122.043ZM124.227 36.2488C123.425 36.2488 122.771 36.0155 122.267 35.5488C121.763 35.0822 121.511 34.5035 121.511 33.8128C121.511 33.1222 121.763 32.5435 122.267 32.0768C122.771 31.6102 123.425 31.3768 124.227 31.3768C125.03 31.3768 125.683 31.6008 126.187 32.0488C126.691 32.4782 126.943 33.0382 126.943 33.7288C126.943 34.4568 126.691 35.0635 126.187 35.5488C125.702 36.0155 125.049 36.2488 124.227 36.2488ZM139.369 53.6368C138.1 53.6368 136.989 53.3568 136.037 52.7968C135.085 52.2368 134.339 51.3875 133.797 50.2488C133.275 49.0915 133.013 47.6355 133.013 45.8808C133.013 44.1075 133.265 42.6515 133.769 41.5128C134.273 40.3742 135.001 39.5248 135.953 38.9648C136.905 38.4048 138.044 38.1248 139.369 38.1248C140.788 38.1248 142.057 38.4515 143.177 39.1048C144.316 39.7395 145.212 40.6355 145.865 41.7928C146.537 42.9502 146.873 44.3128 146.873 45.8808C146.873 47.4675 146.537 48.8395 145.865 49.9968C145.212 51.1542 144.316 52.0502 143.177 52.6848C142.057 53.3195 140.788 53.6368 139.369 53.6368ZM130.465 58.8448V38.3488H134.637V41.4288L134.553 45.9088L134.833 50.3608V58.8448H130.465ZM138.613 50.0528C139.341 50.0528 139.985 49.8848 140.545 49.5488C141.124 49.2128 141.581 48.7368 141.917 48.1208C142.272 47.4862 142.449 46.7395 142.449 45.8808C142.449 45.0035 142.272 44.2568 141.917 43.6408C141.581 43.0248 141.124 42.5488 140.545 42.2128C139.985 41.8768 139.341 41.7088 138.613 41.7088C137.885 41.7088 137.232 41.8768 136.653 42.2128C136.075 42.5488 135.617 43.0248 135.281 43.6408C134.945 44.2568 134.777 45.0035 134.777 45.8808C134.777 46.7395 134.945 47.4862 135.281 48.1208C135.617 48.7368 136.075 49.2128 136.653 49.5488C137.232 49.8848 137.885 50.0528 138.613 50.0528ZM158.701 53.6368C157.432 53.6368 156.321 53.3568 155.369 52.7968C154.417 52.2368 153.671 51.3875 153.129 50.2488C152.607 49.0915 152.345 47.6355 152.345 45.8808C152.345 44.1075 152.597 42.6515 153.101 41.5128C153.605 40.3742 154.333 39.5248 155.285 38.9648C156.237 38.4048 157.376 38.1248 158.701 38.1248C160.12 38.1248 161.389 38.4515 162.509 39.1048C163.648 39.7395 164.544 40.6355 165.197 41.7928C165.869 42.9502 166.205 44.3128 166.205 45.8808C166.205 47.4675 165.869 48.8395 165.197 49.9968C164.544 51.1542 163.648 52.0502 162.509 52.6848C161.389 53.3195 160.12 53.6368 158.701 53.6368ZM149.797 58.8448V38.3488H153.969V41.4288L153.885 45.9088L154.165 50.3608V58.8448H149.797ZM157.945 50.0528C158.673 50.0528 159.317 49.8848 159.877 49.5488C160.456 49.2128 160.913 48.7368 161.249 48.1208C161.604 47.4862 161.781 46.7395 161.781 45.8808C161.781 45.0035 161.604 44.2568 161.249 43.6408C160.913 43.0248 160.456 42.5488 159.877 42.2128C159.317 41.8768 158.673 41.7088 157.945 41.7088C157.217 41.7088 156.564 41.8768 155.985 42.2128C155.407 42.5488 154.949 43.0248 154.613 43.6408C154.277 44.2568 154.109 45.0035 154.109 45.8808C154.109 46.7395 154.277 47.4862 154.613 48.1208C154.949 48.7368 155.407 49.2128 155.985 49.5488C156.564 49.8848 157.217 50.0528 157.945 50.0528ZM176.605 53.6368C174.888 53.6368 173.376 53.3008 172.069 52.6288C170.781 51.9568 169.783 51.0422 169.073 49.8848C168.364 48.7088 168.009 47.3742 168.009 45.8808C168.009 44.3688 168.355 43.0342 169.045 41.8768C169.755 40.7008 170.716 39.7862 171.929 39.1328C173.143 38.4608 174.515 38.1248 176.045 38.1248C177.52 38.1248 178.845 38.4422 180.021 39.0768C181.216 39.6928 182.159 40.5888 182.849 41.7648C183.54 42.9222 183.885 44.3128 183.885 45.9368C183.885 46.1048 183.876 46.3008 183.857 46.5248C183.839 46.7302 183.82 46.9262 183.801 47.1128H171.565V44.5648H181.505L179.825 45.3208C179.825 44.5368 179.667 43.8555 179.349 43.2768C179.032 42.6982 178.593 42.2502 178.033 41.9328C177.473 41.5968 176.82 41.4288 176.073 41.4288C175.327 41.4288 174.664 41.5968 174.085 41.9328C173.525 42.2502 173.087 42.7075 172.769 43.3048C172.452 43.8835 172.293 44.5742 172.293 45.3768V46.0488C172.293 46.8702 172.471 47.5982 172.825 48.2328C173.199 48.8488 173.712 49.3248 174.365 49.6608C175.037 49.9782 175.821 50.1368 176.717 50.1368C177.52 50.1368 178.22 50.0155 178.817 49.7728C179.433 49.5302 179.993 49.1662 180.497 48.6808L182.821 51.2008C182.131 51.9848 181.263 52.5915 180.217 53.0208C179.172 53.4315 177.968 53.6368 176.605 53.6368ZM193.261 53.6368C191.843 53.6368 190.564 53.3195 189.425 52.6848C188.287 52.0315 187.381 51.1262 186.709 49.9688C186.056 48.8115 185.729 47.4488 185.729 45.8808C185.729 44.2942 186.056 42.9222 186.709 41.7648C187.381 40.6075 188.287 39.7115 189.425 39.0768C190.564 38.4422 191.843 38.1248 193.261 38.1248C194.531 38.1248 195.641 38.4048 196.593 38.9648C197.545 39.5248 198.283 40.3742 198.805 41.5128C199.328 42.6515 199.589 44.1075 199.589 45.8808C199.589 47.6355 199.337 49.0915 198.833 50.2488C198.329 51.3875 197.601 52.2368 196.649 52.7968C195.716 53.3568 194.587 53.6368 193.261 53.6368ZM194.017 50.0528C194.727 50.0528 195.371 49.8848 195.949 49.5488C196.528 49.2128 196.985 48.7368 197.321 48.1208C197.676 47.4862 197.853 46.7395 197.853 45.8808C197.853 45.0035 197.676 44.2568 197.321 43.6408C196.985 43.0248 196.528 42.5488 195.949 42.2128C195.371 41.8768 194.727 41.7088 194.017 41.7088C193.289 41.7088 192.636 41.8768 192.057 42.2128C191.479 42.5488 191.012 43.0248 190.657 43.6408C190.321 44.2568 190.153 45.0035 190.153 45.8808C190.153 46.7395 190.321 47.4862 190.657 48.1208C191.012 48.7368 191.479 49.2128 192.057 49.5488C192.636 49.8848 193.289 50.0528 194.017 50.0528ZM197.965 53.4128V50.3328L198.049 45.8528L197.769 41.4008V32.6368H202.137V53.4128H197.965ZM214.418 53.4128V33.8128H222.902C224.656 33.8128 226.168 34.1022 227.438 34.6808C228.707 35.2408 229.687 36.0528 230.378 37.1168C231.068 38.1808 231.414 39.4502 231.414 40.9248C231.414 42.3808 231.068 43.6408 230.378 44.7048C229.687 45.7688 228.707 46.5902 227.438 47.1688C226.168 47.7288 224.656 48.0088 222.902 48.0088H216.938L218.954 45.9648V53.4128H214.418ZM218.954 46.4688L216.938 44.3128H222.65C224.05 44.3128 225.095 44.0142 225.786 43.4168C226.476 42.8195 226.822 41.9888 226.822 40.9248C226.822 39.8422 226.476 39.0022 225.786 38.4048C225.095 37.8075 224.05 37.5088 222.65 37.5088H216.938L218.954 35.3528V46.4688ZM241.793 53.6368C240.075 53.6368 238.563 53.3008 237.257 52.6288C235.969 51.9568 234.97 51.0422 234.261 49.8848C233.551 48.7088 233.197 47.3742 233.197 45.8808C233.197 44.3688 233.542 43.0342 234.233 41.8768C234.942 40.7008 235.903 39.7862 237.117 39.1328C238.33 38.4608 239.702 38.1248 241.233 38.1248C242.707 38.1248 244.033 38.4422 245.209 39.0768C246.403 39.6928 247.346 40.5888 248.037 41.7648C248.727 42.9222 249.073 44.3128 249.073 45.9368C249.073 46.1048 249.063 46.3008 249.045 46.5248C249.026 46.7302 249.007 46.9262 248.989 47.1128H236.753V44.5648H246.693L245.013 45.3208C245.013 44.5368 244.854 43.8555 244.537 43.2768C244.219 42.6982 243.781 42.2502 243.221 41.9328C242.661 41.5968 242.007 41.4288 241.261 41.4288C240.514 41.4288 239.851 41.5968 239.273 41.9328C238.713 42.2502 238.274 42.7075 237.957 43.3048C237.639 43.8835 237.481 44.5742 237.481 45.3768V46.0488C237.481 46.8702 237.658 47.5982 238.013 48.2328C238.386 48.8488 238.899 49.3248 239.553 49.6608C240.225 49.9782 241.009 50.1368 241.905 50.1368C242.707 50.1368 243.407 50.0155 244.005 49.7728C244.621 49.5302 245.181 49.1662 245.685 48.6808L248.009 51.2008C247.318 51.9848 246.45 52.5915 245.405 53.0208C244.359 53.4315 243.155 53.6368 241.793 53.6368ZM258.141 53.6368C256.368 53.6368 254.986 53.1888 253.997 52.2928C253.008 51.3782 252.513 50.0248 252.513 48.2328V35.0168H256.881V48.1768C256.881 48.8115 257.049 49.3062 257.385 49.6608C257.721 49.9968 258.178 50.1648 258.757 50.1648C259.448 50.1648 260.036 49.9782 260.521 49.6048L261.697 52.6848C261.249 53.0022 260.708 53.2448 260.073 53.4128C259.457 53.5622 258.813 53.6368 258.141 53.6368ZM250.189 42.0448V38.6848H260.633V42.0448H250.189ZM269.217 53.6368C267.929 53.6368 266.687 53.4875 265.493 53.1888C264.317 52.8715 263.383 52.4795 262.693 52.0128L264.149 48.8768C264.839 49.3062 265.651 49.6608 266.585 49.9408C267.537 50.2022 268.47 50.3328 269.385 50.3328C270.393 50.3328 271.102 50.2115 271.513 49.9688C271.942 49.7262 272.157 49.3902 272.157 48.9608C272.157 48.6062 271.989 48.3448 271.653 48.1768C271.335 47.9902 270.906 47.8502 270.365 47.7568C269.823 47.6635 269.226 47.5702 268.573 47.4768C267.938 47.3835 267.294 47.2622 266.641 47.1128C265.987 46.9448 265.39 46.7022 264.849 46.3848C264.307 46.0675 263.869 45.6382 263.533 45.0968C263.215 44.5555 263.057 43.8555 263.057 42.9968C263.057 42.0448 263.327 41.2048 263.869 40.4768C264.429 39.7488 265.231 39.1795 266.277 38.7688C267.322 38.3395 268.573 38.1248 270.029 38.1248C271.055 38.1248 272.101 38.2368 273.165 38.4608C274.229 38.6848 275.115 39.0115 275.825 39.4408L274.369 42.5488C273.641 42.1195 272.903 41.8302 272.157 41.6808C271.429 41.5128 270.719 41.4288 270.029 41.4288C269.058 41.4288 268.349 41.5595 267.901 41.8208C267.453 42.0822 267.229 42.4182 267.229 42.8288C267.229 43.2022 267.387 43.4822 267.705 43.6688C268.041 43.8555 268.479 44.0048 269.021 44.1168C269.562 44.2288 270.15 44.3315 270.785 44.4248C271.438 44.4995 272.091 44.6208 272.745 44.7888C273.398 44.9568 273.986 45.1995 274.509 45.5168C275.05 45.8155 275.489 46.2355 275.825 46.7768C276.161 47.2995 276.329 47.9902 276.329 48.8488C276.329 49.7822 276.049 50.6128 275.489 51.3408C274.929 52.0502 274.117 52.6102 273.053 53.0208C272.007 53.4315 270.729 53.6368 269.217 53.6368ZM300.702 33.8128H305.238V53.4128H300.702V33.8128ZM291.798 53.4128H287.262V33.8128H291.798V53.4128ZM301.038 45.3768H291.462V41.5408H301.038V45.3768ZM317.043 53.6368C315.325 53.6368 313.813 53.3008 312.507 52.6288C311.219 51.9568 310.22 51.0422 309.511 49.8848C308.801 48.7088 308.447 47.3742 308.447 45.8808C308.447 44.3688 308.792 43.0342 309.483 41.8768C310.192 40.7008 311.153 39.7862 312.367 39.1328C313.58 38.4608 314.952 38.1248 316.483 38.1248C317.957 38.1248 319.283 38.4422 320.459 39.0768C321.653 39.6928 322.596 40.5888 323.287 41.7648C323.977 42.9222 324.323 44.3128 324.323 45.9368C324.323 46.1048 324.313 46.3008 324.295 46.5248C324.276 46.7302 324.257 46.9262 324.239 47.1128H312.003V44.5648H321.943L320.263 45.3208C320.263 44.5368 320.104 43.8555 319.787 43.2768C319.469 42.6982 319.031 42.2502 318.471 41.9328C317.911 41.5968 317.257 41.4288 316.511 41.4288C315.764 41.4288 315.101 41.5968 314.523 41.9328C313.963 42.2502 313.524 42.7075 313.207 43.3048C312.889 43.8835 312.731 44.5742 312.731 45.3768V46.0488C312.731 46.8702 312.908 47.5982 313.263 48.2328C313.636 48.8488 314.149 49.3248 314.803 49.6608C315.475 49.9782 316.259 50.1368 317.155 50.1368C317.957 50.1368 318.657 50.0155 319.255 49.7728C319.871 49.5302 320.431 49.1662 320.935 48.6808L323.259 51.2008C322.568 51.9848 321.7 52.5915 320.655 53.0208C319.609 53.4315 318.405 53.6368 317.043 53.6368ZM327.231 53.4128V32.6368H331.599V53.4128H327.231ZM344.557 53.6368C343.287 53.6368 342.177 53.3568 341.225 52.7968C340.273 52.2368 339.526 51.3875 338.985 50.2488C338.462 49.0915 338.201 47.6355 338.201 45.8808C338.201 44.1075 338.453 42.6515 338.957 41.5128C339.461 40.3742 340.189 39.5248 341.141 38.9648C342.093 38.4048 343.231 38.1248 344.557 38.1248C345.975 38.1248 347.245 38.4515 348.365 39.1048C349.503 39.7395 350.399 40.6355 351.053 41.7928C351.725 42.9502 352.061 44.3128 352.061 45.8808C352.061 47.4675 351.725 48.8395 351.053 49.9968C350.399 51.1542 349.503 52.0502 348.365 52.6848C347.245 53.3195 345.975 53.6368 344.557 53.6368ZM335.653 58.8448V38.3488H339.825V41.4288L339.741 45.9088L340.021 50.3608V58.8448H335.653ZM343.801 50.0528C344.529 50.0528 345.173 49.8848 345.733 49.5488C346.311 49.2128 346.769 48.7368 347.105 48.1208C347.459 47.4862 347.637 46.7395 347.637 45.8808C347.637 45.0035 347.459 44.2568 347.105 43.6408C346.769 43.0248 346.311 42.5488 345.733 42.2128C345.173 41.8768 344.529 41.7088 343.801 41.7088C343.073 41.7088 342.419 41.8768 341.841 42.2128C341.262 42.5488 340.805 43.0248 340.469 43.6408C340.133 44.2568 339.965 45.0035 339.965 45.8808C339.965 46.7395 340.133 47.4862 340.469 48.1208C340.805 48.7368 341.262 49.2128 341.841 49.5488C342.419 49.8848 343.073 50.0528 343.801 50.0528ZM362.461 53.6368C360.743 53.6368 359.231 53.3008 357.925 52.6288C356.637 51.9568 355.638 51.0422 354.929 49.8848C354.219 48.7088 353.865 47.3742 353.865 45.8808C353.865 44.3688 354.21 43.0342 354.901 41.8768C355.61 40.7008 356.571 39.7862 357.785 39.1328C358.998 38.4608 360.37 38.1248 361.901 38.1248C363.375 38.1248 364.701 38.4422 365.877 39.0768C367.071 39.6928 368.014 40.5888 368.705 41.7648C369.395 42.9222 369.741 44.3128 369.741 45.9368C369.741 46.1048 369.731 46.3008 369.713 46.5248C369.694 46.7302 369.675 46.9262 369.657 47.1128H357.421V44.5648H367.361L365.681 45.3208C365.681 44.5368 365.522 43.8555 365.205 43.2768C364.887 42.6982 364.449 42.2502 363.889 41.9328C363.329 41.5968 362.675 41.4288 361.929 41.4288C361.182 41.4288 360.519 41.5968 359.941 41.9328C359.381 42.2502 358.942 42.7075 358.625 43.3048C358.307 43.8835 358.149 44.5742 358.149 45.3768V46.0488C358.149 46.8702 358.326 47.5982 358.681 48.2328C359.054 48.8488 359.567 49.3248 360.221 49.6608C360.893 49.9782 361.677 50.1368 362.573 50.1368C363.375 50.1368 364.075 50.0155 364.673 49.7728C365.289 49.5302 365.849 49.1662 366.353 48.6808L368.677 51.2008C367.986 51.9848 367.118 52.5915 366.073 53.0208C365.027 53.4315 363.823 53.6368 362.461 53.6368ZM372.649 53.4128V38.3488H376.821V42.6048L376.233 41.3728C376.681 40.3088 377.399 39.5062 378.389 38.9648C379.378 38.4048 380.582 38.1248 382.001 38.1248V42.1568C381.814 42.1382 381.646 42.1288 381.497 42.1288C381.347 42.1102 381.189 42.1008 381.021 42.1008C379.826 42.1008 378.855 42.4462 378.109 43.1368C377.381 43.8088 377.017 44.8635 377.017 46.3008V53.4128H372.649Z" fill="black"/>
<g clip-path="url(#clip0_152_52)">
<path d="M54.7483 40.4448C50.75 32.5914 40.9646 28.3161 32.9262 30.9113C24.1917 33.7312 18.8982 43.5999 21.0958 52.9413C21.9399 56.5544 24.0932 59.5376 27.1265 61.3301C30.1373 63.1298 33.6828 63.5135 37.0508 62.4261L47.5592 59.0336C51.3538 57.8085 54.1771 55.1873 55.5437 51.6635C56.9103 48.1398 56.6118 44.1433 54.7483 40.4448Z" fill="#FF742B"/>
<path d="M29.0341 28.3849C32.6676 27.2118 34.6196 23.1835 33.394 19.3874C32.1684 15.5913 28.2295 13.4648 24.596 14.6379C20.9626 15.8109 19.0106 19.8392 20.2362 23.6353C21.4617 27.4315 25.4007 29.5579 29.0341 28.3849Z" fill="#FF742B"/>
<path d="M44.8743 26.2978C47.9002 25.3209 49.5257 21.9663 48.5051 18.805C47.4845 15.6437 44.2043 13.8729 41.1784 14.8498C38.1525 15.8266 36.5271 19.1812 37.5477 22.3425C38.5683 25.5038 41.8485 27.2747 44.8743 26.2978Z" fill="#FF742B"/>
<path d="M55.9353 32.8369C58.3535 32.0562 59.6525 29.3751 58.8368 26.8486C58.0212 24.3223 55.3998 22.907 52.9815 23.6878C50.5635 24.4684 49.2642 27.1494 50.0798 29.6757C50.8955 32.2023 53.5172 33.6176 55.9353 32.8369Z" fill="#FF742B"/>
<path d="M17.1639 40.3035C20.1897 39.3266 21.8152 35.9719 20.7946 32.8106C19.774 29.6494 16.4937 27.8785 13.468 28.8554C10.4422 29.8322 8.81662 33.1869 9.83722 36.3482C10.8578 39.5095 14.1381 41.2804 17.1639 40.3035Z" fill="#FF742B"/>
</g>
<defs>
<clipPath id="clip0_152_52">
<rect width="56.6276" height="59.1632" fill="white" transform="translate(0 17.3978) rotate(-17.8924)"/>
</clipPath>
</defs>
</svg>
