<svg width="363" height="74" viewBox="0 0 363 74" fill="none" xmlns="http://www.w3.org/2000/svg">
<path d="M99.87 40.1785H95.5149C95.4354 39.615 95.273 39.1145 95.0277 38.677C94.7824 38.2329 94.4676 37.8551 94.0831 37.5435C93.6986 37.232 93.2545 36.9933 92.7507 36.8276C92.2536 36.6619 91.7133 36.579 91.13 36.579C90.076 36.579 89.1579 36.8409 88.3757 37.3645C87.5935 37.8816 86.987 38.6373 86.5561 39.6316C86.1252 40.6193 85.9098 41.8191 85.9098 43.231C85.9098 44.6827 86.1252 45.9024 86.5561 46.8901C86.9936 47.8778 87.6035 48.6235 88.3857 49.1273C89.1679 49.6311 90.0727 49.883 91.1001 49.883C91.6768 49.883 92.2105 49.8068 92.701 49.6543C93.1982 49.5019 93.639 49.2798 94.0234 48.9881C94.4079 48.6898 94.7261 48.3286 94.978 47.9043C95.2365 47.4801 95.4155 46.9962 95.5149 46.4526L99.87 46.4725C99.7573 47.4072 99.4756 48.3087 99.0249 49.177C98.5807 50.0388 97.9808 50.811 97.2251 51.4938C96.4761 52.1699 95.5812 52.7069 94.5405 53.1046C93.5064 53.4957 92.3364 53.6913 91.0305 53.6913C89.2143 53.6913 87.5902 53.2803 86.1584 52.4583C84.7332 51.6363 83.6063 50.4465 82.7777 48.8887C81.9557 47.3309 81.5447 45.445 81.5447 43.231C81.5447 41.0104 81.9624 39.1212 82.7976 37.5634C83.6328 36.0056 84.7663 34.8191 86.1982 34.0038C87.63 33.1818 89.2408 32.7708 91.0305 32.7708C92.2105 32.7708 93.3042 32.9365 94.3118 33.268C95.326 33.5994 96.2242 34.0833 97.0064 34.7197C97.7886 35.3494 98.425 36.1216 98.9155 37.0364C99.4126 37.9512 99.7308 38.9985 99.87 40.1785ZM107.114 44.5833V53.4128H102.878V33.0492H106.994V40.8347H107.173C107.518 39.9332 108.075 39.2272 108.844 38.7168C109.613 38.1998 110.577 37.9413 111.737 37.9413C112.798 37.9413 113.723 38.1733 114.511 38.6373C115.307 39.0947 115.923 39.7542 116.361 40.616C116.805 41.4711 117.024 42.4952 117.017 43.6884V53.4128H112.781V44.4441C112.788 43.5028 112.549 42.7703 112.065 42.2466C111.588 41.723 110.919 41.4611 110.057 41.4611C109.48 41.4611 108.97 41.5838 108.526 41.829C108.088 42.0743 107.743 42.4323 107.491 42.9029C107.246 43.3669 107.12 43.927 107.114 44.5833ZM120.35 53.4128V38.1401H124.586V53.4128H120.35ZM122.478 36.1714C121.849 36.1714 121.308 35.9626 120.858 35.5449C120.413 35.1207 120.191 34.6136 120.191 34.0236C120.191 33.4403 120.413 32.9398 120.858 32.5222C121.308 32.098 121.849 31.8859 122.478 31.8859C123.108 31.8859 123.645 32.098 124.089 32.5222C124.54 32.9398 124.765 33.4403 124.765 34.0236C124.765 34.6136 124.54 35.1207 124.089 35.5449C123.645 35.9626 123.108 36.1714 122.478 36.1714ZM127.979 59.1401V38.1401H132.156V40.7055H132.344C132.53 40.2945 132.799 39.8769 133.15 39.4526C133.508 39.0217 133.972 38.6638 134.542 38.3788C135.119 38.0871 135.835 37.9413 136.69 37.9413C137.803 37.9413 138.831 38.2329 139.772 38.8163C140.713 39.393 141.466 40.2646 142.029 41.4313C142.593 42.5913 142.874 44.0464 142.874 45.7964C142.874 47.5 142.599 48.9384 142.049 50.1117C141.505 51.2784 140.763 52.1633 139.822 52.7665C138.887 53.3631 137.84 53.6614 136.68 53.6614C135.858 53.6614 135.158 53.5255 134.582 53.2538C134.012 52.982 133.544 52.6406 133.18 52.2296C132.815 51.812 132.537 51.3911 132.344 50.9668H132.215V59.1401H127.979ZM132.126 45.7765C132.126 46.6846 132.252 47.4768 132.504 48.1529C132.755 48.829 133.12 49.356 133.597 49.7339C134.075 50.1051 134.655 50.2907 135.337 50.2907C136.027 50.2907 136.61 50.1018 137.087 49.7239C137.565 49.3395 137.926 48.8091 138.171 48.133C138.423 47.4502 138.549 46.6647 138.549 45.7765C138.549 44.8948 138.426 44.1193 138.181 43.4498C137.936 42.7803 137.575 42.2566 137.097 41.8788C136.62 41.5009 136.033 41.312 135.337 41.312C134.648 41.312 134.065 41.4943 133.587 41.8589C133.117 42.2234 132.755 42.7405 132.504 43.41C132.252 44.0795 132.126 44.8683 132.126 45.7765ZM145.698 59.1401V38.1401H149.874V40.7055H150.063C150.249 40.2945 150.517 39.8769 150.869 39.4526C151.227 39.0217 151.691 38.6638 152.261 38.3788C152.837 38.0871 153.553 37.9413 154.408 37.9413C155.522 37.9413 156.549 38.2329 157.491 38.8163C158.432 39.393 159.184 40.2646 159.748 41.4313C160.311 42.5913 160.593 44.0464 160.593 45.7964C160.593 47.5 160.318 48.9384 159.768 50.1117C159.224 51.2784 158.482 52.1633 157.54 52.7665C156.606 53.3631 155.558 53.6614 154.398 53.6614C153.576 53.6614 152.877 53.5255 152.3 53.2538C151.73 52.982 151.263 52.6406 150.898 52.2296C150.534 51.812 150.255 51.3911 150.063 50.9668H149.934V59.1401H145.698ZM149.844 45.7765C149.844 46.6846 149.97 47.4768 150.222 48.1529C150.474 48.829 150.839 49.356 151.316 49.7339C151.793 50.1051 152.373 50.2907 153.056 50.2907C153.746 50.2907 154.329 50.1018 154.806 49.7239C155.283 49.3395 155.645 48.8091 155.89 48.133C156.142 47.4502 156.268 46.6647 156.268 45.7765C156.268 44.8948 156.145 44.1193 155.9 43.4498C155.655 42.7803 155.293 42.2566 154.816 41.8788C154.339 41.5009 153.752 41.312 153.056 41.312C152.367 41.312 151.783 41.4943 151.306 41.8589C150.835 42.2234 150.474 42.7405 150.222 43.41C149.97 44.0795 149.844 44.8683 149.844 45.7765ZM170.377 53.7111C168.806 53.7111 167.454 53.393 166.32 52.7566C165.193 52.1136 164.325 51.2055 163.715 50.0322C163.105 48.8522 162.8 47.4569 162.8 45.8461C162.8 44.2751 163.105 42.8963 163.715 41.7097C164.325 40.5232 165.183 39.5984 166.29 38.9356C167.404 38.2727 168.71 37.9413 170.208 37.9413C171.216 37.9413 172.154 38.1037 173.022 38.4285C173.897 38.7466 174.659 39.2272 175.309 39.8702C175.965 40.5132 176.476 41.3219 176.84 42.2964C177.205 43.2642 177.387 44.3977 177.387 45.6969V46.8603H164.491V44.2353H173.4C173.4 43.6254 173.267 43.0852 173.002 42.6145C172.737 42.1439 172.369 41.776 171.898 41.5109C171.434 41.2391 170.894 41.1032 170.278 41.1032C169.635 41.1032 169.065 41.2523 168.567 41.5506C168.077 41.8423 167.692 42.2367 167.414 42.7339C167.136 43.2244 166.993 43.7713 166.987 44.3745V46.8702C166.987 47.6259 167.126 48.2788 167.404 48.829C167.689 49.3792 168.09 49.8035 168.607 50.1018C169.124 50.4001 169.737 50.5492 170.447 50.5492C170.917 50.5492 171.348 50.4829 171.739 50.3503C172.13 50.2178 172.465 50.0189 172.744 49.7538C173.022 49.4886 173.234 49.1638 173.38 48.7793L177.298 49.0378C177.099 49.9791 176.691 50.8011 176.075 51.5038C175.465 52.1998 174.676 52.7433 173.708 53.1344C172.747 53.5189 171.637 53.7111 170.377 53.7111ZM185.779 53.6614C184.619 53.6614 183.568 53.3631 182.627 52.7665C181.692 52.1633 180.95 51.2784 180.4 50.1117C179.856 48.9384 179.585 47.5 179.585 45.7964C179.585 44.0464 179.866 42.5913 180.43 41.4313C180.993 40.2646 181.742 39.393 182.677 38.8163C183.618 38.2329 184.649 37.9413 185.769 37.9413C186.624 37.9413 187.337 38.0871 187.907 38.3788C188.484 38.6638 188.948 39.0217 189.299 39.4526C189.657 39.8769 189.929 40.2945 190.114 40.7055H190.244V33.0492H194.469V53.4128H190.293V50.9668H190.114C189.915 51.3911 189.634 51.812 189.269 52.2296C188.911 52.6406 188.444 52.982 187.867 53.2538C187.297 53.5255 186.601 53.6614 185.779 53.6614ZM187.121 50.2907C187.804 50.2907 188.381 50.1051 188.852 49.7339C189.329 49.356 189.693 48.829 189.945 48.1529C190.204 47.4768 190.333 46.6846 190.333 45.7765C190.333 44.8683 190.207 44.0795 189.955 43.41C189.703 42.7405 189.339 42.2234 188.862 41.8589C188.384 41.4943 187.804 41.312 187.121 41.312C186.425 41.312 185.839 41.5009 185.362 41.8788C184.884 42.2566 184.523 42.7803 184.278 43.4498C184.032 44.1193 183.91 44.8948 183.91 45.7765C183.91 46.6647 184.032 47.4502 184.278 48.133C184.53 48.8091 184.891 49.3395 185.362 49.7239C185.839 50.1018 186.425 50.2907 187.121 50.2907ZM204.512 53.4128V33.0492H212.546C214.091 33.0492 215.406 33.3442 216.494 33.9341C217.581 34.5175 218.409 35.3295 218.979 36.3702C219.556 37.4043 219.844 38.5975 219.844 39.9498C219.844 41.302 219.553 42.4952 218.969 43.5293C218.386 44.5634 217.541 45.3688 216.434 45.9455C215.334 46.5222 214.001 46.8106 212.437 46.8106H207.316V43.3603H211.741C212.569 43.3603 213.252 43.2178 213.789 42.9327C214.333 42.6411 214.737 42.24 215.002 41.7296C215.274 41.2126 215.41 40.6193 215.41 39.9498C215.41 39.2736 215.274 38.6837 215.002 38.1799C214.737 37.6695 214.333 37.2751 213.789 36.9966C213.246 36.7116 212.556 36.5691 211.721 36.5691H208.817V53.4128H204.512ZM229.276 53.7111C227.705 53.7111 226.352 53.393 225.219 52.7566C224.092 52.1136 223.223 51.2055 222.614 50.0322C222.004 48.8522 221.699 47.4569 221.699 45.8461C221.699 44.2751 222.004 42.8963 222.614 41.7097C223.223 40.5232 224.082 39.5984 225.189 38.9356C226.303 38.2727 227.608 37.9413 229.107 37.9413C230.114 37.9413 231.052 38.1037 231.92 38.4285C232.795 38.7466 233.558 39.2272 234.207 39.8702C234.864 40.5132 235.374 41.3219 235.739 42.2964C236.103 43.2642 236.286 44.3977 236.286 45.6969V46.8603H223.389V44.2353H232.298C232.298 43.6254 232.166 43.0852 231.901 42.6145C231.635 42.1439 231.268 41.776 230.797 41.5109C230.333 41.2391 229.793 41.1032 229.176 41.1032C228.533 41.1032 227.963 41.2523 227.466 41.5506C226.975 41.8423 226.591 42.2367 226.312 42.7339C226.034 43.2244 225.892 43.7713 225.885 44.3745V46.8702C225.885 47.6259 226.024 48.2788 226.303 48.829C226.588 49.3792 226.989 49.8035 227.506 50.1018C228.023 50.4001 228.636 50.5492 229.345 50.5492C229.816 50.5492 230.247 50.4829 230.638 50.3503C231.029 50.2178 231.364 50.0189 231.642 49.7538C231.92 49.4886 232.133 49.1638 232.278 48.7793L236.196 49.0378C235.997 49.9791 235.589 50.8011 234.973 51.5038C234.363 52.1998 233.574 52.7433 232.607 53.1344C231.645 53.5189 230.535 53.7111 229.276 53.7111ZM247.173 38.1401V41.3219H237.976V38.1401H247.173ZM240.064 34.481H244.3V48.7197C244.3 49.1108 244.359 49.4157 244.479 49.6344C244.598 49.8466 244.764 49.9957 244.976 50.0819C245.195 50.1681 245.446 50.2111 245.732 50.2111C245.93 50.2111 246.129 50.1946 246.328 50.1614C246.527 50.1216 246.679 50.0918 246.786 50.0719L247.452 53.2239C247.24 53.2902 246.941 53.3664 246.557 53.4526C246.172 53.5454 245.705 53.6018 245.155 53.6216C244.134 53.6614 243.239 53.5255 242.47 53.214C241.708 52.9024 241.115 52.4185 240.69 51.7623C240.266 51.106 240.057 50.2774 240.064 49.2765V34.481ZM262.449 42.4952L258.571 42.7339C258.504 42.4024 258.362 42.1041 258.143 41.839C257.924 41.5672 257.636 41.3518 257.278 41.1927C256.927 41.027 256.506 40.9441 256.015 40.9441C255.359 40.9441 254.806 41.0833 254.355 41.3617C253.904 41.6335 253.679 41.9981 253.679 42.4555C253.679 42.82 253.824 43.1283 254.116 43.3802C254.408 43.6321 254.908 43.8342 255.618 43.9867L258.382 44.5435C259.867 44.8484 260.974 45.339 261.703 46.0151C262.432 46.6913 262.797 47.5795 262.797 48.6799C262.797 49.6808 262.502 50.5591 261.912 51.3148C261.328 52.0705 260.526 52.6605 259.505 53.0847C258.491 53.5023 257.321 53.7111 255.995 53.7111C253.974 53.7111 252.363 53.2902 251.163 52.4484C249.97 51.5999 249.27 50.4465 249.065 48.9881L253.231 48.7694C253.357 49.3859 253.662 49.8565 254.146 50.1813C254.63 50.4995 255.25 50.6586 256.005 50.6586C256.748 50.6586 257.344 50.5161 257.795 50.231C258.252 49.9394 258.484 49.5648 258.491 49.1074C258.484 48.723 258.322 48.4081 258.004 48.1628C257.686 47.9109 257.195 47.7187 256.532 47.5861L253.887 47.0591C252.396 46.7609 251.286 46.2438 250.556 45.508C249.834 44.7722 249.473 43.8342 249.473 42.6941C249.473 41.713 249.738 40.8679 250.268 40.1586C250.805 39.4493 251.557 38.9024 252.525 38.518C253.5 38.1335 254.64 37.9413 255.946 37.9413C257.875 37.9413 259.393 38.3489 260.5 39.1643C261.613 39.9796 262.263 41.0899 262.449 42.4952ZM272.024 53.4128V33.0492H276.329V41.4512H285.069V33.0492H289.365V53.4128H285.069V45.0009H276.329V53.4128H272.024ZM299.795 53.7111C298.224 53.7111 296.872 53.393 295.738 52.7566C294.611 52.1136 293.743 51.2055 293.133 50.0322C292.523 48.8522 292.218 47.4569 292.218 45.8461C292.218 44.2751 292.523 42.8963 293.133 41.7097C293.743 40.5232 294.601 39.5984 295.708 38.9356C296.822 38.2727 298.128 37.9413 299.626 37.9413C300.634 37.9413 301.572 38.1037 302.44 38.4285C303.315 38.7466 304.077 39.2272 304.727 39.8702C305.383 40.5132 305.894 41.3219 306.258 42.2964C306.623 43.2642 306.805 44.3977 306.805 45.6969V46.8603H293.909V44.2353H302.818C302.818 43.6254 302.685 43.0852 302.42 42.6145C302.155 42.1439 301.787 41.776 301.316 41.5109C300.852 41.2391 300.312 41.1032 299.696 41.1032C299.053 41.1032 298.483 41.2523 297.985 41.5506C297.495 41.8423 297.11 42.2367 296.832 42.7339C296.554 43.2244 296.411 43.7713 296.404 44.3745V46.8702C296.404 47.6259 296.544 48.2788 296.822 48.829C297.107 49.3792 297.508 49.8035 298.025 50.1018C298.542 50.4001 299.155 50.5492 299.865 50.5492C300.335 50.5492 300.766 50.4829 301.157 50.3503C301.548 50.2178 301.883 50.0189 302.162 49.7538C302.44 49.4886 302.652 49.1638 302.798 48.7793L306.716 49.0378C306.517 49.9791 306.109 50.8011 305.493 51.5038C304.883 52.1998 304.094 52.7433 303.126 53.1344C302.165 53.5189 301.055 53.7111 299.795 53.7111ZM313.805 33.0492V53.4128H309.569V33.0492H313.805ZM317.198 59.1401V38.1401H321.374V40.7055H321.563C321.749 40.2945 322.017 39.8769 322.369 39.4526C322.727 39.0217 323.191 38.6638 323.761 38.3788C324.337 38.0871 325.053 37.9413 325.908 37.9413C327.022 37.9413 328.049 38.2329 328.991 38.8163C329.932 39.393 330.684 40.2646 331.248 41.4313C331.811 42.5913 332.093 44.0464 332.093 45.7964C332.093 47.5 331.818 48.9384 331.268 50.1117C330.724 51.2784 329.982 52.1633 329.04 52.7665C328.106 53.3631 327.058 53.6614 325.898 53.6614C325.076 53.6614 324.377 53.5255 323.8 53.2538C323.23 52.982 322.763 52.6406 322.398 52.2296C322.034 51.812 321.755 51.3911 321.563 50.9668H321.434V59.1401H317.198ZM321.344 45.7765C321.344 46.6846 321.47 47.4768 321.722 48.1529C321.974 48.829 322.339 49.356 322.816 49.7339C323.293 50.1051 323.873 50.2907 324.556 50.2907C325.246 50.2907 325.829 50.1018 326.306 49.7239C326.783 49.3395 327.145 48.8091 327.39 48.133C327.642 47.4502 327.768 46.6647 327.768 45.7765C327.768 44.8948 327.645 44.1193 327.4 43.4498C327.155 42.7803 326.793 42.2566 326.316 41.8788C325.839 41.5009 325.252 41.312 324.556 41.312C323.867 41.312 323.283 41.4943 322.806 41.8589C322.335 42.2234 321.974 42.7405 321.722 43.41C321.47 44.0795 321.344 44.8683 321.344 45.7765ZM341.877 53.7111C340.306 53.7111 338.954 53.393 337.82 52.7566C336.693 52.1136 335.825 51.2055 335.215 50.0322C334.605 48.8522 334.3 47.4569 334.3 45.8461C334.3 44.2751 334.605 42.8963 335.215 41.7097C335.825 40.5232 336.683 39.5984 337.79 38.9356C338.904 38.2727 340.21 37.9413 341.708 37.9413C342.716 37.9413 343.654 38.1037 344.522 38.4285C345.397 38.7466 346.159 39.2272 346.809 39.8702C347.465 40.5132 347.976 41.3219 348.34 42.2964C348.705 43.2642 348.887 44.3977 348.887 45.6969V46.8603H335.991V44.2353H344.9C344.9 43.6254 344.767 43.0852 344.502 42.6145C344.237 42.1439 343.869 41.776 343.398 41.5109C342.934 41.2391 342.394 41.1032 341.778 41.1032C341.135 41.1032 340.565 41.2523 340.067 41.5506C339.577 41.8423 339.192 42.2367 338.914 42.7339C338.636 43.2244 338.493 43.7713 338.487 44.3745V46.8702C338.487 47.6259 338.626 48.2788 338.904 48.829C339.189 49.3792 339.59 49.8035 340.107 50.1018C340.624 50.4001 341.237 50.5492 341.947 50.5492C342.417 50.5492 342.848 50.4829 343.239 50.3503C343.63 50.2178 343.965 50.0189 344.244 49.7538C344.522 49.4886 344.734 49.1638 344.88 48.7793L348.798 49.0378C348.599 49.9791 348.191 50.8011 347.575 51.5038C346.965 52.1998 346.176 52.7433 345.208 53.1344C344.247 53.5189 343.137 53.7111 341.877 53.7111ZM351.651 53.4128V38.1401H355.758V40.8049H355.917C356.195 39.857 356.663 39.1411 357.319 38.6572C357.975 38.1666 358.731 37.9214 359.586 37.9214C359.798 37.9214 360.027 37.9346 360.272 37.9611C360.517 37.9877 360.733 38.0241 360.918 38.0705V41.829C360.719 41.7694 360.444 41.7163 360.093 41.6699C359.742 41.6235 359.42 41.6003 359.129 41.6003C358.505 41.6003 357.949 41.7362 357.458 42.008C356.974 42.2732 356.59 42.6444 356.305 43.1216C356.026 43.5989 355.887 44.1491 355.887 44.7722V53.4128H351.651Z" fill="black"/>
<g clip-path="url(#clip0_76_196)">
<path d="M54.7483 40.4449C50.75 32.5916 40.9646 28.3162 32.9262 30.9114C24.1917 33.7313 18.8982 43.6001 21.0958 52.9414C21.9399 56.5545 24.0932 59.5377 27.1265 61.3302C30.1373 63.1299 33.6828 63.5136 37.0508 62.4263L47.5592 59.0337C51.3538 57.8086 54.1771 55.1874 55.5437 51.6637C56.9103 48.1399 56.6118 44.1434 54.7483 40.4449Z" fill="#FF742B"/>
<path d="M29.0344 28.385C32.6678 27.212 34.6198 23.1837 33.3942 19.3875C32.1687 15.5914 28.2297 13.465 24.5962 14.638C20.9628 15.811 19.0109 19.8393 20.2364 23.6355C21.462 27.4316 25.401 29.558 29.0344 28.385Z" fill="#FF742B"/>
<path d="M44.8743 26.2979C47.9002 25.321 49.5257 21.9664 48.5051 18.8051C47.4845 15.6438 44.2043 13.873 41.1784 14.8499C38.1525 15.8268 36.5271 19.1814 37.5477 22.3427C38.5683 25.5039 41.8485 27.2748 44.8743 26.2979Z" fill="#FF742B"/>
<path d="M55.9351 32.8372C58.3534 32.0564 59.6523 29.3754 58.8367 26.8488C58.021 24.3225 55.3996 22.9073 52.9814 23.688C50.5633 24.4686 49.2641 27.1496 50.0797 29.676C50.8954 32.2025 53.5171 33.6178 55.9351 32.8372Z" fill="#FF742B"/>
<path d="M17.1638 40.3036C20.1896 39.3268 21.8151 35.972 20.7945 32.8107C19.7739 29.6495 16.4936 27.8786 13.4678 28.8555C10.442 29.8324 8.8165 33.187 9.8371 36.3483C10.8577 39.5096 14.138 41.2805 17.1638 40.3036Z" fill="#FF742B"/>
</g>
<defs>
<clipPath id="clip0_76_196">
<rect width="56.6276" height="59.1632" fill="white" transform="translate(0 17.3979) rotate(-17.8924)"/>
</clipPath>
</defs>
</svg>
