<svg width="48" height="48" viewBox="0 0 48 48" fill="none" xmlns="http://www.w3.org/2000/svg">
<path d="M24 4.00012C18.6957 4.00012 13.6086 6.10726 9.85786 9.85799C6.10714 13.6087 4 18.6958 4 24.0001C4 29.3045 6.10714 34.3915 9.85786 38.1423C13.6086 41.893 18.6957 44.0001 24 44.0001C29.3043 44.0001 34.3914 41.893 38.1421 38.1423C41.8929 34.3915 44 29.3045 44 24.0001C44 18.6958 41.8929 13.6087 38.1421 9.85799C34.3914 6.10726 29.3043 4.00012 24 4.00012Z" fill="#29B6F6"/>
<path d="M33.95 15.0001L30.204 34.1261C30.204 34.1261 30.043 35.0001 28.959 35.0001C28.383 35.0001 28.086 34.7261 28.086 34.7261L19.972 27.9931L16.002 25.9921L10.907 24.6371C10.907 24.6371 10 24.3751 10 23.6251C10 23.0001 10.933 22.7021 10.933 22.7021L32.249 14.2341C32.249 14.2341 32.9 13.9991 33.375 14.0001C33.667 14.0001 34 14.1251 34 14.5001C34 14.7501 33.95 15.0001 33.95 15.0001Z" fill="white"/>
<path d="M23.0001 30.5051L19.5741 33.8791C19.5741 33.8791 19.4251 33.9941 19.2261 33.9991C19.1571 34.0011 19.0831 33.9901 19.0071 33.9561L19.9711 27.9911L23.0001 30.5051Z" fill="#B0BEC5"/>
<path d="M29.897 18.1961C29.728 17.9761 29.416 17.9361 29.196 18.1031L16 26.0001C16 26.0001 18.106 31.8921 18.427 32.9121C18.749 33.9331 19.007 33.9571 19.007 33.9571L19.971 27.9921L29.803 18.8961C30.023 18.7291 30.064 18.4161 29.897 18.1961Z" fill="#CFD8DC"/>
</svg>
