<svg width="266" height="266" viewBox="0 0 266 266" fill="none" xmlns="http://www.w3.org/2000/svg">
<path d="M0 50C0 22.3858 22.3858 0 50 0H216C243.614 0 266 22.3858 266 50V216C266 243.614 243.614 266 216 266H50C22.3858 266 0 243.614 0 216V50Z" fill="#FF742B"/>
<path fill-rule="evenodd" clip-rule="evenodd" d="M145.013 99.1089C142 96.0923 137.114 96.0923 134.101 99.1089L93.1818 140.071L93.1917 140.081L91.9883 141.288C91.9883 141.288 88.1504 145.153 79.4853 173.127C79.4245 173.322 79.3642 173.517 79.303 173.715C79.1485 174.216 78.9923 174.725 78.8348 175.241C78.6953 175.698 78.5541 176.163 78.4124 176.632C78.293 177.027 78.1745 177.418 78.0534 177.821C77.7787 178.737 77.5005 179.669 77.2168 180.631C76.5941 182.744 75.0732 187.509 76.7931 189.233C78.4493 190.894 83.2637 189.433 85.3705 188.808C86.3256 188.525 87.2513 188.247 88.1603 187.973C88.5801 187.846 88.9871 187.722 89.3975 187.597C89.8387 187.463 90.2778 187.329 90.7078 187.197C91.2509 187.03 91.7863 186.865 92.3126 186.702C92.4697 186.653 92.6238 186.605 92.7795 186.556C119.395 178.269 124.173 174.38 124.57 174.024C124.573 174.022 124.573 174.022 124.575 174.02C124.592 174.005 124.603 173.994 124.603 173.994L125.835 172.759L125.918 172.842L166.837 131.879C169.851 128.863 169.851 123.972 166.837 120.956L145.013 99.1089ZM120.209 169.055C120.176 169.078 120.13 169.107 120.082 169.138C120.056 169.155 120.024 169.175 119.992 169.194C119.96 169.215 119.925 169.236 119.888 169.259C119.855 169.279 119.82 169.3 119.784 169.322C118.513 170.082 114.784 172.045 105.735 175.321C104.677 175.703 103.526 176.109 102.319 176.527L89.4552 163.65C89.8746 162.434 90.2807 161.274 90.6646 160.208C93.9333 151.121 95.8937 147.381 96.6499 146.112C96.6683 146.082 96.685 146.054 96.7017 146.027C96.7282 145.983 96.753 145.942 96.7762 145.905C96.7946 145.876 96.8138 145.845 96.8301 145.819C96.8605 145.772 96.89 145.727 96.9127 145.693L97.8541 144.749L121.171 168.09L120.209 169.055ZM188.66 99.1089L166.836 77.2621C163.823 74.246 158.938 74.246 155.924 77.2621L150.469 82.724C147.456 85.7402 147.456 90.6308 150.469 93.647L172.292 115.494C175.305 118.51 180.191 118.51 183.204 115.494L188.66 110.032C191.673 107.016 191.673 102.125 188.66 99.1089Z" fill="white"/>
</svg>
