<svg width="216" height="74" viewBox="0 0 216 74" fill="none" xmlns="http://www.w3.org/2000/svg">
<path d="M88.3088 53.6368C86.5355 53.6368 85.1541 53.1888 84.1648 52.2928C83.1755 51.3782 82.6808 50.0248 82.6808 48.2328V35.0168H87.0488V48.1768C87.0488 48.8115 87.2168 49.3062 87.5528 49.6608C87.8888 49.9968 88.3461 50.1648 88.9248 50.1648C89.6155 50.1648 90.2035 49.9782 90.6888 49.6048L91.8648 52.6848C91.4168 53.0022 90.8755 53.2448 90.2408 53.4128C89.6248 53.5622 88.9808 53.6368 88.3088 53.6368ZM80.3568 42.0448V38.6848H90.8008V42.0448H80.3568ZM103.557 53.4128V50.4728L103.277 49.8288V44.5648C103.277 43.6315 102.987 42.9035 102.409 42.3808C101.849 41.8582 100.981 41.5968 99.8048 41.5968C99.0021 41.5968 98.2088 41.7275 97.4248 41.9888C96.6594 42.2315 96.0061 42.5675 95.4648 42.9968L93.8968 39.9448C94.7181 39.3662 95.7074 38.9182 96.8648 38.6008C98.0221 38.2835 99.1981 38.1248 100.393 38.1248C102.689 38.1248 104.471 38.6662 105.741 39.7488C107.01 40.8315 107.645 42.5208 107.645 44.8168V53.4128H103.557ZM98.9648 53.6368C97.7888 53.6368 96.7808 53.4408 95.9408 53.0488C95.1008 52.6382 94.4568 52.0875 94.0088 51.3968C93.5608 50.7062 93.3368 49.9315 93.3368 49.0728C93.3368 48.1768 93.5514 47.3928 93.9808 46.7208C94.4288 46.0488 95.1288 45.5262 96.0808 45.1528C97.0328 44.7608 98.2741 44.5648 99.8048 44.5648H103.809V47.1128H100.281C99.2541 47.1128 98.5448 47.2808 98.1528 47.6168C97.7794 47.9528 97.5928 48.3728 97.5928 48.8768C97.5928 49.4368 97.8074 49.8848 98.2368 50.2208C98.6848 50.5382 99.2914 50.6968 100.057 50.6968C100.785 50.6968 101.438 50.5288 102.017 50.1928C102.595 49.8382 103.015 49.3248 103.277 48.6528L103.949 50.6688C103.631 51.6395 103.053 52.3768 102.213 52.8808C101.373 53.3848 100.29 53.6368 98.9648 53.6368ZM118.791 59.0688C117.373 59.0688 116.001 58.8915 114.675 58.5368C113.369 58.2008 112.277 57.6875 111.399 56.9968L113.135 53.8608C113.77 54.3835 114.573 54.7942 115.543 55.0928C116.533 55.4102 117.503 55.5688 118.455 55.5688C120.005 55.5688 121.125 55.2235 121.815 54.5328C122.525 53.8422 122.879 52.8155 122.879 51.4528V49.1848L123.159 45.4048L123.103 41.5968V38.3488H127.247V50.8928C127.247 53.6928 126.519 55.7555 125.063 57.0808C123.607 58.4062 121.517 59.0688 118.791 59.0688ZM118.119 52.6848C116.719 52.6848 115.45 52.3862 114.311 51.7888C113.191 51.1728 112.286 50.3235 111.595 49.2408C110.923 48.1395 110.587 46.8608 110.587 45.4048C110.587 43.9302 110.923 42.6515 111.595 41.5688C112.286 40.4675 113.191 39.6182 114.311 39.0208C115.45 38.4235 116.719 38.1248 118.119 38.1248C119.389 38.1248 120.509 38.3862 121.479 38.9088C122.45 39.4128 123.206 40.2062 123.747 41.2888C124.289 42.3528 124.559 43.7248 124.559 45.4048C124.559 47.0662 124.289 48.4382 123.747 49.5208C123.206 50.5848 122.45 51.3782 121.479 51.9008C120.509 52.4235 119.389 52.6848 118.119 52.6848ZM118.987 49.1008C119.753 49.1008 120.434 48.9515 121.031 48.6528C121.629 48.3355 122.095 47.8968 122.431 47.3368C122.767 46.7768 122.935 46.1328 122.935 45.4048C122.935 44.6582 122.767 44.0142 122.431 43.4728C122.095 42.9128 121.629 42.4835 121.031 42.1848C120.434 41.8675 119.753 41.7088 118.987 41.7088C118.222 41.7088 117.541 41.8675 116.943 42.1848C116.346 42.4835 115.87 42.9128 115.515 43.4728C115.179 44.0142 115.011 44.6582 115.011 45.4048C115.011 46.1328 115.179 46.7768 115.515 47.3368C115.87 47.8968 116.346 48.3355 116.943 48.6528C117.541 48.9515 118.222 49.1008 118.987 49.1008ZM138.397 59.0688C136.978 59.0688 135.606 58.8915 134.281 58.5368C132.974 58.2008 131.882 57.6875 131.005 56.9968L132.741 53.8608C133.376 54.3835 134.178 54.7942 135.149 55.0928C136.138 55.4102 137.109 55.5688 138.061 55.5688C139.61 55.5688 140.73 55.2235 141.421 54.5328C142.13 53.8422 142.485 52.8155 142.485 51.4528V49.1848L142.765 45.4048L142.709 41.5968V38.3488H146.853V50.8928C146.853 53.6928 146.125 55.7555 144.669 57.0808C143.213 58.4062 141.122 59.0688 138.397 59.0688ZM137.725 52.6848C136.325 52.6848 135.056 52.3862 133.917 51.7888C132.797 51.1728 131.892 50.3235 131.201 49.2408C130.529 48.1395 130.193 46.8608 130.193 45.4048C130.193 43.9302 130.529 42.6515 131.201 41.5688C131.892 40.4675 132.797 39.6182 133.917 39.0208C135.056 38.4235 136.325 38.1248 137.725 38.1248C138.994 38.1248 140.114 38.3862 141.085 38.9088C142.056 39.4128 142.812 40.2062 143.353 41.2888C143.894 42.3528 144.165 43.7248 144.165 45.4048C144.165 47.0662 143.894 48.4382 143.353 49.5208C142.812 50.5848 142.056 51.3782 141.085 51.9008C140.114 52.4235 138.994 52.6848 137.725 52.6848ZM138.593 49.1008C139.358 49.1008 140.04 48.9515 140.637 48.6528C141.234 48.3355 141.701 47.8968 142.037 47.3368C142.373 46.7768 142.541 46.1328 142.541 45.4048C142.541 44.6582 142.373 44.0142 142.037 43.4728C141.701 42.9128 141.234 42.4835 140.637 42.1848C140.04 41.8675 139.358 41.7088 138.593 41.7088C137.828 41.7088 137.146 41.8675 136.549 42.1848C135.952 42.4835 135.476 42.9128 135.121 43.4728C134.785 44.0142 134.617 44.6582 134.617 45.4048C134.617 46.1328 134.785 46.7768 135.121 47.3368C135.476 47.8968 135.952 48.3355 136.549 48.6528C137.146 48.9515 137.828 49.1008 138.593 49.1008ZM152.822 59.0688C152.038 59.0688 151.264 58.9475 150.498 58.7048C149.733 58.4622 149.108 58.1262 148.622 57.6968L150.218 54.5888C150.554 54.8875 150.937 55.1208 151.366 55.2888C151.814 55.4568 152.253 55.5408 152.682 55.5408C153.298 55.5408 153.784 55.3915 154.138 55.0928C154.512 54.8128 154.848 54.3368 155.146 53.6648L155.93 51.8168L156.266 51.3408L161.67 38.3488H165.87L159.066 54.3368C158.581 55.5502 158.021 56.5022 157.386 57.1928C156.77 57.8835 156.08 58.3688 155.314 58.6488C154.568 58.9288 153.737 59.0688 152.822 59.0688ZM155.398 54.0008L148.678 38.3488H153.186L158.394 50.9488L155.398 54.0008Z" fill="black"/>
<path d="M176.557 53.6368C175.287 53.6368 174.177 53.3568 173.225 52.7968C172.273 52.2368 171.526 51.3875 170.985 50.2488C170.462 49.0915 170.201 47.6355 170.201 45.8808C170.201 44.1075 170.453 42.6515 170.957 41.5128C171.461 40.3742 172.189 39.5248 173.141 38.9648C174.093 38.4048 175.231 38.1248 176.557 38.1248C177.975 38.1248 179.245 38.4515 180.365 39.1048C181.503 39.7395 182.399 40.6355 183.053 41.7928C183.725 42.9502 184.061 44.3128 184.061 45.8808C184.061 47.4675 183.725 48.8395 183.053 49.9968C182.399 51.1542 181.503 52.0502 180.365 52.6848C179.245 53.3195 177.975 53.6368 176.557 53.6368ZM167.653 58.8448V38.3488H171.825V41.4288L171.741 45.9088L172.021 50.3608V58.8448H167.653ZM175.801 50.0528C176.529 50.0528 177.173 49.8848 177.733 49.5488C178.311 49.2128 178.769 48.7368 179.105 48.1208C179.459 47.4862 179.637 46.7395 179.637 45.8808C179.637 45.0035 179.459 44.2568 179.105 43.6408C178.769 43.0248 178.311 42.5488 177.733 42.2128C177.173 41.8768 176.529 41.7088 175.801 41.7088C175.073 41.7088 174.419 41.8768 173.841 42.2128C173.262 42.5488 172.805 43.0248 172.469 43.6408C172.133 44.2568 171.965 45.0035 171.965 45.8808C171.965 46.7395 172.133 47.4862 172.469 48.1208C172.805 48.7368 173.262 49.2128 173.841 49.5488C174.419 49.8848 175.073 50.0528 175.801 50.0528ZM194.461 53.6368C192.743 53.6368 191.231 53.3008 189.925 52.6288C188.637 51.9568 187.638 51.0422 186.929 49.8848C186.219 48.7088 185.865 47.3742 185.865 45.8808C185.865 44.3688 186.21 43.0342 186.901 41.8768C187.61 40.7008 188.571 39.7862 189.785 39.1328C190.998 38.4608 192.37 38.1248 193.901 38.1248C195.375 38.1248 196.701 38.4422 197.877 39.0768C199.071 39.6928 200.014 40.5888 200.705 41.7648C201.395 42.9222 201.741 44.3128 201.741 45.9368C201.741 46.1048 201.731 46.3008 201.713 46.5248C201.694 46.7302 201.675 46.9262 201.657 47.1128H189.421V44.5648H199.361L197.681 45.3208C197.681 44.5368 197.522 43.8555 197.205 43.2768C196.887 42.6982 196.449 42.2502 195.889 41.9328C195.329 41.5968 194.675 41.4288 193.929 41.4288C193.182 41.4288 192.519 41.5968 191.941 41.9328C191.381 42.2502 190.942 42.7075 190.625 43.3048C190.307 43.8835 190.149 44.5742 190.149 45.3768V46.0488C190.149 46.8702 190.326 47.5982 190.681 48.2328C191.054 48.8488 191.567 49.3248 192.221 49.6608C192.893 49.9782 193.677 50.1368 194.573 50.1368C195.375 50.1368 196.075 50.0155 196.673 49.7728C197.289 49.5302 197.849 49.1662 198.353 48.6808L200.677 51.2008C199.986 51.9848 199.118 52.5915 198.073 53.0208C197.027 53.4315 195.823 53.6368 194.461 53.6368ZM210.809 53.6368C209.035 53.6368 207.654 53.1888 206.665 52.2928C205.675 51.3782 205.181 50.0248 205.181 48.2328V35.0168H209.549V48.1768C209.549 48.8115 209.717 49.3062 210.053 49.6608C210.389 49.9968 210.846 50.1648 211.425 50.1648C212.115 50.1648 212.703 49.9782 213.189 49.6048L214.365 52.6848C213.917 53.0022 213.375 53.2448 212.741 53.4128C212.125 53.5622 211.481 53.6368 210.809 53.6368ZM202.857 42.0448V38.6848H213.301V42.0448H202.857Z" fill="black" fill-opacity="0.5"/>
<g clip-path="url(#clip0_228_563)">
<path d="M54.7483 40.4448C50.75 32.5914 40.9646 28.3161 32.9262 30.9113C24.1917 33.7312 18.8982 43.5999 21.0958 52.9413C21.9399 56.5544 24.0932 59.5376 27.1265 61.3301C30.1373 63.1298 33.6828 63.5135 37.0508 62.4261L47.5592 59.0336C51.3538 57.8085 54.1771 55.1873 55.5437 51.6635C56.9103 48.1398 56.6118 44.1433 54.7483 40.4448Z" fill="#FF742B"/>
<path d="M29.0344 28.3849C32.6678 27.2119 34.6198 23.1835 33.3942 19.3874C32.1687 15.5913 28.2297 13.4648 24.5962 14.6379C20.9628 15.8109 19.0109 19.8392 20.2364 23.6353C21.462 27.4315 25.401 29.5579 29.0344 28.3849Z" fill="#FF742B"/>
<path d="M44.8743 26.2978C47.9002 25.3209 49.5257 21.9663 48.5051 18.805C47.4845 15.6437 44.2043 13.8729 41.1784 14.8498C38.1525 15.8266 36.5271 19.1812 37.5477 22.3425C38.5683 25.5038 41.8485 27.2747 44.8743 26.2978Z" fill="#FF742B"/>
<path d="M55.935 32.8369C58.3533 32.0562 59.6522 29.3751 58.8365 26.8486C58.0209 24.3223 55.3995 22.907 52.9813 23.6878C50.5632 24.4684 49.264 27.1494 50.0796 29.6757C50.8953 32.2023 53.517 33.6176 55.935 32.8369Z" fill="#FF742B"/>
<path d="M17.1639 40.3035C20.1897 39.3266 21.8152 35.9719 20.7946 32.8106C19.774 29.6494 16.4937 27.8785 13.468 28.8554C10.4422 29.8322 8.81662 33.1869 9.83722 36.3482C10.8578 39.5095 14.1381 41.2804 17.1639 40.3035Z" fill="#FF742B"/>
</g>
<defs>
<clipPath id="clip0_228_563">
<rect width="56.6276" height="59.1632" fill="white" transform="translate(0 17.3978) rotate(-17.8924)"/>
</clipPath>
</defs>
</svg>
