<svg width="138" height="138" viewBox="0 0 138 138" fill="none" xmlns="http://www.w3.org/2000/svg">
<g clip-path="url(#clip0_235_573)">
<path d="M69.003 9.00039C84.9113 9.01786 100.163 15.3452 111.412 26.594C122.661 37.8429 128.988 53.0947 129.006 69.003C129.034 78.6574 126.707 88.173 122.225 96.7242C117.887 104.995 111.698 112.153 104.141 117.641C93.914 125.029 81.619 129.006 69.003 129.006C56.387 129.006 44.092 125.029 33.8655 117.641C26.3046 112.155 20.1134 104.997 15.7747 96.7242C11.2951 88.1725 8.9698 78.6569 9.00042 69.003C9.01789 53.0947 15.3452 37.8429 26.5941 26.594C37.843 15.3452 53.0947 9.01786 69.003 9.00039ZM69.003 0C55.3555 0 42.0145 4.04696 30.667 11.6291C19.3195 19.2112 10.4752 29.988 5.25257 42.5967C0.0298978 55.2053 -1.33659 69.0795 1.3259 82.4648C3.9884 95.8501 10.5603 108.145 20.2105 117.795C29.8608 127.446 42.1559 134.018 55.5412 136.68C68.9265 139.343 82.8007 137.976 95.4093 132.753C108.018 127.531 118.795 118.686 126.377 107.339C133.959 95.9915 138.006 82.6505 138.006 69.003C138.006 50.7023 130.736 33.1511 117.796 20.2105C104.855 7.26994 87.3038 0 69.003 0Z" fill="white"/>
<path d="M73.3654 87.0518C80.5374 87.0613 87.4128 89.915 92.4836 94.9869C97.5545 100.059 100.407 106.935 100.415 114.107V120.107C90.9623 125.906 80.0895 128.975 69.0002 128.975C57.911 128.975 47.0381 125.906 37.5858 120.107V114.107C37.5938 106.935 40.446 100.059 45.5168 94.9869C50.5876 89.915 57.463 87.0613 64.635 87.0518H73.3654ZM73.3654 78.0514H64.635C59.9004 78.0514 55.2122 78.984 50.8381 80.7961C46.4639 82.6081 42.4896 85.264 39.142 88.6122C35.7944 91.9603 33.1391 95.9351 31.3278 100.31C29.5165 104.684 28.5847 109.372 28.5854 114.107V124.907C40.3472 133.407 54.489 137.981 69.0002 137.981C83.5114 137.981 97.6532 133.407 109.415 124.907V114.107C109.416 109.372 108.484 104.684 106.673 100.31C104.861 95.9351 102.206 91.9603 98.8584 88.6122C95.5108 85.264 91.5365 82.6081 87.1624 80.7961C82.7882 78.984 78.1 78.0514 73.3654 78.0514Z" fill="white"/>
<path d="M69.003 43.9879C71.2367 43.9879 73.4202 44.6504 75.2774 45.8915C77.1346 47.1326 78.5819 48.8966 79.4365 50.9604C80.291 53.0241 80.5143 55.295 80.0781 57.4857C79.6418 59.6764 78.5658 61.6885 76.9859 63.2675C75.406 64.8466 73.3933 65.9216 71.2024 66.3567C69.0114 66.7917 66.7407 66.5672 64.6774 65.7116C62.6141 64.856 60.8508 63.4077 59.6107 61.5498C58.3706 59.692 57.7093 57.5081 57.7105 55.2744C57.7137 52.281 58.9046 49.4112 61.0219 47.2951C63.1391 45.179 66.0096 43.9895 69.003 43.9879ZM69.003 34.9875C64.9889 34.9864 61.0647 36.1757 57.7266 38.405C54.3885 40.6344 51.7866 43.8036 50.25 47.5119C48.7133 51.2202 48.3109 55.3009 49.0937 59.2379C49.8766 63.1749 51.8094 66.7913 54.6478 69.6297C57.4861 72.468 61.1025 74.4009 65.0395 75.1837C68.9765 75.9665 73.0572 75.5641 76.7655 74.0275C80.4738 72.4908 83.6431 69.8889 85.8724 66.5508C88.1018 63.2127 89.2911 59.2885 89.2899 55.2744C89.2883 49.8945 87.1504 44.7354 83.3462 40.9312C79.542 37.127 74.3829 34.9891 69.003 34.9875Z" fill="white"/>
<circle cx="69" cy="55" r="14" fill="white"/>
<path d="M40 93L52 84.5H77.5L95 93L105.5 112V123L69 134.5L40 126.5L34 119V104.5L40 93Z" fill="white" stroke="white"/>
</g>
<defs>
<clipPath id="clip0_235_573">
<rect width="138" height="138" fill="white"/>
</clipPath>
</defs>
</svg>
