<svg width="266" height="266" viewBox="0 0 266 266" fill="none" xmlns="http://www.w3.org/2000/svg">
<path d="M0 90C0 40.2944 40.2944 0 90 0H176C225.706 0 266 40.2944 266 90V176C266 225.706 225.706 266 176 266H90C40.2944 266 0 225.706 0 176V90Z" fill="#F81D1D"/>
<path d="M196.201 87.635C195.669 87.1011 194.988 86.8327 194.16 86.8327H166.727L160.512 71.9383C159.625 69.7377 158.027 67.8645 155.72 66.3184C153.41 64.7726 151.072 64 148.705 64H120.295C117.928 64 115.59 64.7726 113.282 66.3184C110.973 67.8645 109.375 69.7374 108.487 71.9383L102.273 86.8327H74.8406C74.0112 86.8327 73.3315 87.1011 72.7985 87.635C72.2671 88.1701 72 88.8543 72 89.6866V95.3955C72 96.2278 72.2659 96.9119 72.7985 97.4462C73.3315 97.981 74.0125 98.2484 74.8406 98.2484H83.3626V183.161C83.3626 188.098 84.7535 192.304 87.5349 195.782C90.317 199.262 93.661 201 97.5676 201H171.432C175.34 201 178.683 199.202 181.465 195.605C184.247 192.006 185.637 187.741 185.637 182.806V98.2484H194.16C194.988 98.2484 195.669 97.981 196.201 97.4462C196.732 96.9123 197 96.2278 197 95.3955V89.6866C197.001 88.8543 196.732 88.1701 196.201 87.635ZM118.964 76.3958C119.378 75.8609 119.881 75.5329 120.473 75.4148H148.616C149.207 75.5338 149.712 75.8615 150.125 76.3958L154.388 86.8315H114.614L118.964 76.3958ZM174.274 182.806C174.274 184.114 174.067 185.319 173.652 186.418C173.238 187.517 172.807 188.32 172.365 188.825C171.92 189.332 171.611 189.584 171.432 189.584H97.5679C97.3903 189.584 97.0812 189.332 96.6362 188.825C96.1919 188.32 95.7625 187.517 95.348 186.418C94.9341 185.319 94.727 184.113 94.727 182.806V98.2484H174.274L174.274 182.806Z" fill="white"/>
<path d="M108.932 172.46H114.614C115.443 172.46 116.124 172.192 116.656 171.658C117.187 171.121 117.454 170.439 117.454 169.605V118.228C117.454 117.396 117.187 116.712 116.656 116.177C116.123 115.643 115.443 115.375 114.614 115.375H108.932C108.103 115.375 107.423 115.642 106.89 116.177C106.358 116.712 106.092 117.396 106.092 118.228V169.605C106.092 170.439 106.357 171.121 106.89 171.658C107.423 172.192 108.103 172.46 108.932 172.46Z" fill="white"/>
<path d="M131.66 172.46H137.341C138.17 172.46 138.851 172.192 139.382 171.658C139.916 171.121 140.181 170.439 140.181 169.605V118.228C140.181 117.396 139.916 116.712 139.382 116.177C138.851 115.643 138.17 115.375 137.341 115.375H131.66C130.831 115.375 130.15 115.642 129.618 116.177C129.085 116.712 128.819 117.396 128.819 118.228V169.605C128.819 170.439 129.085 171.121 129.618 171.658C130.15 172.192 130.831 172.46 131.66 172.46Z" fill="white"/>
<path d="M154.388 172.46H160.068C160.898 172.46 161.579 172.192 162.111 171.658C162.643 171.121 162.908 170.439 162.908 169.605V118.228C162.908 117.396 162.643 116.712 162.111 116.177C161.579 115.643 160.898 115.375 160.068 115.375H154.388C153.557 115.375 152.878 115.642 152.344 116.177C151.812 116.712 151.546 117.396 151.546 118.228V169.605C151.546 170.439 151.812 171.121 152.344 171.658C152.878 172.192 153.557 172.46 154.388 172.46Z" fill="white"/>
</svg>
