<svg width="48" height="48" viewBox="0 0 171 171" fill="none" xmlns="http://www.w3.org/2000/svg">
<g clip-path="url(#clip0_557_168)">
<path fill-rule="evenodd" clip-rule="evenodd" d="M268 85.7C268 70.6 257.8 59.9 242.9 59.9C227.9 59.9 217.7 70.5 217.7 85.7C217.7 100.5 227.9 111.3 242.9 111.3C257.7 111.3 268 100.5 268 85.7ZM242.9 127.6C219.2 127.6 200.2 109.8 200.2 85.7C200.2 61.7 219.3 43.6 242.9 43.6C266.4 43.6 285.5 61.7 285.5 85.7C285.5 109.8 266.4 127.6 242.9 127.6ZM293.9 46.9C293.9 45.6 294.6 44.8 296 44.8H309.2C310.5 44.8 311.3 45.5 311.3 46.9V78.6L340.8 46C341.6 45.1 342.4 44.8 343.6 44.8H362.6C363.9 44.8 364 46.1 363.2 47L326.2 84.4L365.2 124.4C366 125.3 365.9 126.6 364.6 126.6H345.8C344.2 126.6 343.8 126.2 342.9 125.5L311.3 90.9V124.5C311.3 125.8 310.6 126.6 309.2 126.6H296C294.7 126.6 293.9 125.9 293.9 124.5V46.9Z" fill="white"/>
<path d="M1.30005 82.2C1.30005 43.8 1.30005 24.5 13.2 12.6C25.2 0.700013 44.4 0.700012 82.8 0.700012H89.6C128 0.700012 147.3 0.700013 159.2 12.6C171.1 24.5 171.1 43.8 171.1 82.2V89C171.1 127.4 171.1 146.7 159.2 158.6C147.3 170.5 128 170.5 89.6 170.5H82.8C44.4 170.5 25.1 170.5 13.2 158.6C1.30005 146.7 1.30005 127.5 1.30005 89V82.2Z" fill="white"/>
<path d="M86.1999 85.2C94.4999 85.2 102 81.8 107.4 76.4C112.8 71 116.2 63.5 116.2 55.2C116.2 46.9 112.8 39.4 107.4 34C102 28.6 94.4999 25.2 86.1999 25.2C77.8999 25.2 70.4 28.6 65 34C59.6 39.4 56.2 46.9 56.2 55.2C56.2 63.5 59.6 71 65 76.4C70.4 81.8 77.9999 85.2 86.1999 85.2ZM76.5999 45.5C79.0999 43 82.4999 41.5 86.1999 41.5C89.9999 41.5 93.4 43 95.8 45.5C98.3 48 99.8 51.4 99.8 55.1C99.8 58.9 98.3 62.3 95.8 64.7C93.3 67.2 89.8999 68.7 86.1999 68.7C82.3999 68.7 78.9999 67.2 76.5999 64.7C74.0999 62.2 72.5999 58.8 72.5999 55.1C72.5999 51.4 74.1999 48 76.5999 45.5Z" fill="#FF7700"/>
<path d="M126.6 97.3L117.8 85.3C117.3 84.6 116.3 84.5 115.7 85.1C107.4 92.2 97.2 96.8 86.2 96.8C75.2 96.8 65 92.2 56.7 85.1C56.1 84.6 55.1 84.7 54.6 85.3L45.8 97.3C45.4 97.9 45.5 98.7 46 99.2C53.4 105.2 62 109.3 71 111.4L52.4 144.2C51.9 145.1 52.6 146.3 53.6 146.3H71.8C72.4 146.3 72.9 146 73.1 145.4L86.1 116.4L99.1 145.4C99.3 145.9 99.8 146.3 100.4 146.3H118.6C119.7 146.3 120.3 145.2 119.8 144.2L101.2 111.4C110.2 109.3 118.8 105.3 126.2 99.2C127 98.7 127.1 97.9 126.6 97.3Z" fill="#FF7700"/>
</g>
<defs>
<clipPath id="clip0_557_168">
<rect width="366.7" height="171" fill="white"/>
</clipPath>
</defs>
</svg>
